<svg width="64" height="64" viewBox="0 0 64 64" fill="none" xmlns="http://www.w3.org/2000/svg">
<path d="M43.4619 11.1247C43.5381 11.1656 43.6142 11.2065 43.6927 11.2487C44.7655 11.8286 45.7425 12.4943 46.6965 13.2568C46.8044 13.3399 46.9123 13.423 47.0235 13.5086C51.8796 17.3462 54.933 23.1214 55.6848 29.2629C56.3566 35.6658 54.5461 41.8949 50.5885 46.9253C46.6214 51.8454 40.9416 54.9682 34.6888 55.6828C28.4528 56.3167 22.049 54.659 17.147 50.653C16.7469 50.3189 16.357 49.9743 15.968 49.6271C15.8538 49.5274 15.7397 49.4276 15.622 49.3248C14.9771 48.754 14.3947 48.1657 13.8531 47.4951C13.7495 47.3688 13.6459 47.2425 13.5392 47.1124C12.6748 46.0429 11.9325 44.9219 11.2406 43.7326C11.1968 43.6589 11.1531 43.5851 11.108 43.5092C9.08203 40.0624 8.1958 36.0303 8.21594 32.0533C8.21621 31.9574 8.21648 31.8615 8.21675 31.7627C8.24589 25.2428 10.8956 19.5415 15.346 14.8872C15.6644 14.5757 15.9961 14.2902 16.3413 14.0093C16.4323 13.9339 16.4323 13.9339 16.5252 13.8571C24.133 7.58087 34.7568 6.38829 43.4619 11.1247ZM15.968 15.138C15.8984 15.2041 15.8288 15.2702 15.7571 15.3383C14.3785 16.6549 13.0838 18.0501 12.2358 19.7784C13.4962 19.9781 14.7565 20.1777 16.0169 20.3771C16.6028 20.4698 17.1887 20.5625 17.7745 20.6554C20.1919 21.0387 22.6097 21.4196 25.0293 21.7883C25.2485 21.8218 25.4677 21.8553 25.6869 21.889C25.9889 21.9354 26.291 21.9812 26.5931 22.0269C26.682 22.0407 26.7709 22.0544 26.8625 22.0685C27.2611 22.1283 27.6309 22.1612 28.0355 22.1612C28.0765 21.9543 28.1176 21.7474 28.1599 21.5342C27.503 21.5342 26.8461 21.5342 26.1694 21.5342C26.2104 21.1203 26.2515 20.7064 26.2938 20.28C26.458 20.2567 26.6222 20.2335 26.7914 20.2095C28.1437 19.9345 29.3821 19.2982 30.4838 18.4772C31.9572 17.4369 33.8976 17.1488 35.6243 16.7684C35.6243 16.0648 35.6243 15.3612 35.6243 14.6364C35.4601 14.6364 35.2958 14.6364 35.1267 14.6364C35.1267 14.1811 35.1267 13.7258 35.1267 13.2568C35.4551 13.2568 35.7835 13.2568 36.1219 13.2568C36.1638 12.7264 36.2051 12.196 36.2463 11.6656C36.2582 11.5153 36.27 11.365 36.2823 11.2102C36.2935 11.0651 36.3047 10.92 36.3163 10.7705C36.3267 10.6372 36.3371 10.5039 36.3479 10.3665C36.3685 10.0327 36.375 9.70328 36.3707 9.36893C36.617 9.36893 36.8634 9.36893 37.1172 9.36893C37.1172 9.32754 37.1172 9.28615 37.1172 9.24351C36.7907 9.1828 36.4641 9.12282 36.1375 9.06323C36.047 9.04633 35.9566 9.02944 35.8634 9.01203C28.716 7.71634 21.1991 10.1221 15.968 15.138ZM37.4904 9.36893C37.4437 10.6792 37.5883 11.9581 37.7392 13.2568C38.0676 13.2982 38.3961 13.3396 38.7344 13.3822C38.7344 13.7547 38.7344 14.1272 38.7344 14.5109C38.5292 14.5109 38.3239 14.5109 38.1124 14.5109C38.1232 14.8586 38.1365 15.2059 38.1513 15.5534C38.1541 15.652 38.1569 15.7505 38.1598 15.852C38.1642 15.947 38.1686 16.042 38.1732 16.1399C38.1764 16.2272 38.1797 16.3146 38.183 16.4046C38.2542 16.72 38.3556 16.8237 38.61 17.0192C38.9057 17.1477 38.9057 17.1477 39.2428 17.2446C39.3681 17.2841 39.4934 17.3237 39.6225 17.3644C39.7554 17.4057 39.8883 17.447 40.0252 17.4895C41.5645 17.9879 42.8203 18.6031 44.1311 19.5643C45.1144 20.2099 46.1435 20.6786 47.3185 20.6563C47.2774 21.0287 47.2364 21.4012 47.1941 21.785C46.6604 21.8264 46.1267 21.8678 45.5768 21.9104C45.5593 23.5854 45.6271 25.2538 45.7012 26.927C45.9239 27.0111 46.1469 27.0946 46.3699 27.1778C46.494 27.2244 46.6182 27.271 46.746 27.3189C47.0521 27.442 47.0521 27.442 47.3185 27.4287C47.374 28.0034 47.4185 28.5777 47.4537 29.154C47.467 29.3491 47.4832 29.544 47.5024 29.7385C47.6589 31.3556 47.6589 31.3556 47.2949 31.9239C47.1039 32.1468 46.9054 32.355 46.697 32.5614C46.1433 33.1129 45.8599 33.5023 45.8229 34.3018C45.83 34.817 45.866 35.3262 45.9112 35.8393C45.9236 36.0471 45.9354 36.2549 45.9464 36.4627C45.9743 36.9567 46.0108 37.4495 46.0519 37.9426C46.0735 38.2035 46.0937 38.4646 46.1131 38.7257C46.1409 39.0988 46.1695 39.4718 46.1988 39.8447C46.3489 39.8842 46.4991 39.9236 46.6537 39.9643C46.8546 40.0184 47.0554 40.0727 47.2563 40.1269C47.3548 40.1526 47.4532 40.1783 47.5547 40.2048C48.2095 40.3834 48.8787 40.5661 49.4334 40.9735C49.6045 41.287 49.6045 41.287 49.6822 41.726C49.7061 41.832 49.73 41.9381 49.7546 42.0473C49.9537 43.0208 50.0825 44.0199 49.8066 44.9868C49.3188 45.7021 48.6958 46.2588 48.0168 46.7869C47.6435 47.0919 47.3386 47.3437 47.0697 47.7459C47.0679 48.3417 47.2163 48.8296 47.4429 49.3763C51.9684 45.6075 54.6949 39.9295 55.2523 34.078C55.6863 28.2604 54.1162 22.3299 50.4287 17.7717C50.3774 17.7075 50.3262 17.6433 50.2734 17.5772C47.1532 13.6808 42.5059 10.2012 37.4904 9.36893ZM29.7772 20.4054C29.7772 20.4468 29.7772 20.4882 29.7772 20.5309C32.0431 20.8135 32.0431 20.8135 34.2011 20.3666C34.6963 19.9269 34.9568 19.411 35.1267 18.775C35.1302 18.487 35.1302 18.487 35.0022 18.2734C33.5492 17.2968 30.8802 19.508 29.7772 20.4054ZM38.7344 20.4054C38.7344 20.4468 38.7344 20.4882 38.7344 20.5309C39.7507 20.6659 40.7668 20.6969 41.7902 20.7268C41.9649 20.7322 42.1396 20.7377 42.3143 20.7432C42.7383 20.7564 43.1623 20.7692 43.5863 20.7817C43.5863 20.7403 43.5863 20.6989 43.5863 20.6563C42.4884 20.4306 41.4392 20.3738 40.3206 20.3898C40.0904 20.3915 40.0904 20.3915 39.8556 20.3932C39.4818 20.3961 39.1082 20.4002 38.7344 20.4054ZM43.7107 20.7817C44.2083 20.9071 44.2083 20.9071 44.2083 20.9071L43.7107 20.7817ZM39.0558 21.8033C38.9242 21.8104 38.7927 21.8176 38.6571 21.8249C38.5165 21.8334 38.3759 21.8419 38.231 21.8506C38.0858 21.8589 37.9406 21.8671 37.7911 21.8756C37.4849 21.8931 37.1787 21.9111 36.8725 21.9294C36.4019 21.9574 35.9312 21.984 35.4605 22.0104C35.1633 22.0276 34.866 22.0449 34.5688 22.0623C34.3563 22.0742 34.3563 22.0742 34.1396 22.0865C33.9446 22.0983 33.9446 22.0983 33.7457 22.1105C33.6307 22.1173 33.5157 22.124 33.3972 22.131C33.138 22.1334 33.138 22.1334 33.0117 22.2867C32.9994 22.5015 32.9958 22.7169 32.9956 22.9321C32.9953 23.0698 32.9949 23.2075 32.9945 23.3493C32.9947 23.4992 32.995 23.649 32.9952 23.8034C32.9951 23.956 32.995 24.1087 32.9949 24.2659C32.9948 24.5894 32.995 24.9128 32.9955 25.2363C32.9962 25.7334 32.9955 26.2305 32.9947 26.7276C32.9948 27.041 32.995 27.3544 32.9952 27.6677C32.995 27.8176 32.9947 27.9674 32.9945 28.1218C32.9948 28.2595 32.9952 28.3972 32.9956 28.539C32.9957 28.6609 32.9958 28.7828 32.9959 28.9084C32.9811 29.1814 32.9811 29.1814 33.1361 29.3099C33.3743 29.3227 33.613 29.3261 33.8515 29.3256C33.9817 29.3259 34.1119 29.3262 34.2461 29.3266C34.9555 29.3033 35.663 29.2394 36.3707 29.1845C36.4118 27.3221 36.4528 25.4597 36.4951 23.5408C36.6183 23.5408 36.7415 23.5408 36.8683 23.5408C36.9094 24.1616 36.9505 24.7824 36.9928 25.422C37.157 25.4634 37.3212 25.5048 37.4904 25.5474C37.611 25.444 37.7316 25.3405 37.8558 25.2339C38.2368 24.9204 38.2368 24.9204 38.5945 24.9439C38.6817 24.9775 38.769 25.0111 38.8589 25.0458C38.941 25.2941 39.0231 25.5424 39.1077 25.7983C39.4772 25.7983 39.8466 25.7983 40.2273 25.7983C40.4892 25.2703 40.5 25.0782 40.4732 24.5069C40.4668 24.3557 40.4604 24.2046 40.4538 24.0488C40.4458 23.8915 40.4377 23.7342 40.4295 23.5722C40.4224 23.4129 40.4154 23.2537 40.4081 23.0896C40.3905 22.6965 40.3717 22.3034 40.3517 21.9104C39.9043 21.8042 39.5142 21.7772 39.0558 21.8033ZM31.2389 22.2788C31.1511 22.3265 31.0632 22.3742 30.9726 22.4233C30.8735 22.4798 30.8735 22.4798 30.7724 22.5375C30.7724 22.5789 30.7724 22.6203 30.7724 22.6629C31.2651 22.7043 31.7577 22.7457 32.2653 22.7883C32.2653 22.5814 32.2653 22.3744 32.2653 22.1612C31.8328 22.0051 31.6368 22.0582 31.2389 22.2788ZM41.5958 22.1612C41.5824 23.3396 41.5967 24.4991 41.7202 25.6729C42.437 25.9438 43.147 26.1247 43.8973 26.2686C43.9867 26.2861 44.0761 26.3036 44.1682 26.3216C44.3879 26.3622 44.6091 26.3945 44.8304 26.4254C44.9898 26.2939 44.9898 26.2939 44.9575 25.9979C44.9516 25.8672 44.9458 25.7365 44.9397 25.6018C44.9337 25.4608 44.9277 25.3197 44.9215 25.1744C44.9145 25.0259 44.9075 24.8774 44.9003 24.7244C44.8906 24.5009 44.8906 24.5009 44.8807 24.273C44.8645 23.9035 44.8477 23.534 44.8304 23.1646C44.1394 22.7954 43.4949 22.4714 42.7232 22.3102C42.5214 22.2663 42.5214 22.2663 42.3155 22.2215C41.9663 22.1506 41.9663 22.1506 41.5958 22.1612ZM37.2416 26.5508C37.2382 26.8486 37.2357 27.1465 37.2338 27.4443C37.2327 27.5278 37.2317 27.6112 37.2306 27.6971C37.2282 28.2071 37.2678 28.6843 37.366 29.1845C37.7765 29.1845 38.1871 29.1845 38.61 29.1845C38.6217 28.2541 38.6317 27.3456 38.4856 26.4254C38.0442 26.4152 37.6666 26.4325 37.2416 26.5508ZM39.2321 26.6762C39.2198 26.8522 39.2158 27.0288 39.2156 27.2053C39.2154 27.3118 39.2152 27.4184 39.2151 27.5281C39.2155 27.6402 39.216 27.7522 39.2165 27.8676C39.216 27.9797 39.2156 28.0917 39.2151 28.2071C39.2152 28.3137 39.2154 28.4202 39.2156 28.53C39.2157 28.6283 39.2158 28.7267 39.216 28.8281C39.2071 29.0613 39.2071 29.0613 39.3565 29.1845C39.5752 29.2175 39.795 29.2432 40.015 29.2658C40.2201 29.2878 40.2201 29.2878 40.4294 29.3102C40.5757 29.3256 40.722 29.341 40.8727 29.3569C41.9348 29.4733 42.9673 29.6068 44.0047 29.8679C44.3784 29.9583 44.3784 29.9583 44.9548 29.937C44.9548 29.1092 44.9548 28.2815 44.9548 27.4287C44.2543 27.1106 44.2543 27.1106 43.5571 26.9378C43.4203 26.9151 43.4203 26.9151 43.2806 26.8919C43.1865 26.8776 43.0923 26.8633 42.9954 26.8486C42.8968 26.833 42.7983 26.8173 42.6968 26.8012C40.8783 26.4067 40.8783 26.4067 39.2321 26.6762ZM45.7012 27.8049C45.7012 28.6327 45.7012 29.4604 45.7012 30.3132C46.3457 30.7082 46.3457 30.7082 46.6965 30.6895C46.6583 30.3001 46.6191 29.9108 46.5798 29.5215C46.569 29.411 46.5582 29.3005 46.547 29.1867C46.5362 29.0804 46.5254 28.9741 46.5142 28.8646C46.5045 28.7667 46.4947 28.6689 46.4846 28.568C46.4522 28.2829 46.4522 28.2829 46.3232 27.9303C46.118 27.8889 45.9127 27.8476 45.7012 27.8049ZM31.1048 28.4437C31.0054 28.472 30.906 28.5003 30.8035 28.5295C30.6496 28.5743 30.6496 28.5743 30.4925 28.6201C30.3879 28.65 30.2834 28.6799 30.1757 28.7107C29.9183 28.7845 29.6611 28.859 29.4039 28.9336C29.3987 29.1844 29.3989 29.4354 29.4039 29.6861C29.445 29.7275 29.4861 29.7689 29.5284 29.8116C30.3825 29.7953 31.2083 29.7195 32.0165 29.4353C32.0575 29.0628 32.0986 28.6903 32.1409 28.3066C31.7309 28.3066 31.4861 28.3339 31.1048 28.4437ZM24.4596 30.0699C24.3466 30.0975 24.2336 30.125 24.1172 30.1534C23.7402 30.2454 23.3633 30.3379 22.9863 30.4303C22.7213 30.4951 22.4562 30.5599 22.1912 30.6246C21.6316 30.7614 21.072 30.8984 20.5125 31.0355C19.8095 31.2079 19.1063 31.3798 18.4031 31.5516C15.183 32.3384 11.9652 33.1334 8.75245 33.9502C9.2525 38.3528 10.6473 42.4551 13.3555 45.9901C13.4762 46.1538 13.4762 46.1538 13.5994 46.3208C15.0597 48.2205 16.8471 49.9248 18.8294 51.2575C18.9023 51.3068 18.9752 51.3561 19.0503 51.4069C20.0504 52.0711 21.1109 52.6066 22.1884 53.1309C22.3103 53.1902 22.4321 53.2496 22.5577 53.3107C23.174 53.6043 23.7649 53.8542 24.4277 54.0166C24.6093 53.1644 24.7435 52.3164 24.8412 51.4505C24.855 51.331 24.8687 51.2115 24.8829 51.0883C24.9115 50.8382 24.9398 50.588 24.9679 50.3378C25.011 49.9546 25.0557 49.5716 25.1005 49.1886C25.1282 48.9445 25.1558 48.7004 25.1834 48.4562C25.1968 48.3421 25.2103 48.2279 25.2242 48.1102C25.2358 48.0038 25.2475 47.8974 25.2595 47.7878C25.2701 47.6947 25.2807 47.6016 25.2915 47.5056C25.2991 47.2223 25.2659 47.0101 25.1741 46.7426C24.9262 46.4713 24.9262 46.4713 24.6133 46.2066C24.5009 46.103 24.3885 45.9994 24.2727 45.8926C24.0358 45.6771 23.796 45.4647 23.5534 45.2557C22.7137 44.4673 22.7137 44.4673 22.6337 43.795C22.6648 43.3469 22.7277 42.9196 22.8104 42.4785C22.8277 42.2917 22.8431 42.1047 22.8551 41.9175C22.8711 41.7689 22.8872 41.6204 22.9037 41.4673C22.9258 41.2401 22.9258 41.2401 22.9484 41.0083C23.088 40.4905 23.2652 40.3008 23.6812 39.9702C24.343 39.6352 24.9306 39.514 25.664 39.445C25.7609 39.4347 25.8579 39.4245 25.9577 39.4139C26.194 39.389 26.4305 39.3659 26.667 39.3431C26.7387 38.6183 26.8096 37.8934 26.8796 37.1684C26.9035 36.9223 26.9276 36.6762 26.952 36.4302C27.0296 35.6459 27.1005 34.8613 27.1646 34.0757C27.1777 33.9292 27.1908 33.7827 27.2042 33.6317C27.2488 32.7855 27.0342 32.3568 26.4804 31.732C25.7534 30.8955 25.7534 30.8955 25.7534 30.2559C25.7746 30.0359 25.7746 30.0359 25.7962 29.8116C25.3417 29.8116 24.8996 29.9617 24.4596 30.0699ZM29.2795 33.1978C29.9043 33.1348 30.4955 33.0223 31.1068 32.8764C32.8186 32.5042 34.5235 32.7617 36.2463 32.9469C36.2463 32.8642 36.2463 32.7814 36.2463 32.6961C35.9925 32.6145 35.7385 32.5336 35.4843 32.4531C35.2722 32.3854 35.2722 32.3854 35.0557 32.3164C33.3129 31.8182 30.5781 31.6888 29.2795 33.1978ZM42.8321 32.5707C42.7525 32.6535 42.673 32.7362 42.591 32.8215C42.8784 32.8215 43.1658 32.8215 43.4619 32.8215C43.3798 32.656 43.2977 32.4904 43.2131 32.3199C43.044 32.3053 43.044 32.3053 42.8321 32.5707ZM43.9595 32.5707C43.9595 32.7362 43.9595 32.9018 43.9595 33.0723C44.3701 33.1551 44.7806 33.2379 45.2036 33.3232C44.9985 32.806 44.9985 32.806 44.5816 32.5707C44.2549 32.5497 44.2549 32.5497 43.9595 32.5707ZM33.9837 33.284C33.5608 33.6345 33.4115 33.8563 33.3453 34.4041C33.3414 34.5269 33.3375 34.6497 33.3334 34.7762C33.3286 34.9129 33.3238 35.0496 33.3188 35.1905C33.315 35.3347 33.3112 35.479 33.3072 35.6277C33.3026 35.7741 33.2979 35.9206 33.2932 36.0715C33.2325 37.5822 33.2325 37.5822 33.2606 39.0923C33.3956 39.2569 33.3956 39.2569 33.7237 39.2299C33.8608 39.2285 33.9979 39.227 34.1392 39.2255C34.2766 39.2244 34.414 39.2232 34.5556 39.2221C34.7151 39.2199 34.7151 39.2199 34.8778 39.2177C35.0167 37.2109 35.0157 35.2086 35.0022 33.1978C34.4828 33.0596 34.4828 33.0596 33.9837 33.284ZM31.2156 33.8248C30.666 34.2573 30.436 34.7588 30.3084 35.4331C30.2932 35.6035 30.2801 35.774 30.269 35.9446C30.2614 36.0353 30.2538 36.1259 30.246 36.2192C30.2225 36.5053 30.202 36.7915 30.1815 37.0778C30.166 37.2732 30.1503 37.4686 30.1344 37.6639C30.096 38.1399 30.0603 38.616 30.026 39.0923C30.4365 39.0923 30.8471 39.0923 31.27 39.0923C31.4737 38.4463 31.5741 37.843 31.6248 37.1684C31.6327 37.0722 31.6407 36.976 31.6488 36.8769C31.6737 36.5729 31.6974 36.2688 31.721 35.9647C31.7378 35.7572 31.7546 35.5498 31.7716 35.3423C31.8127 34.8365 31.8527 34.3307 31.8921 33.8248C31.5277 33.6569 31.5277 33.6569 31.2156 33.8248ZM32.7629 35.9569C32.1189 36.6853 31.9934 37.0879 31.9465 38.0419C31.9411 38.1425 31.9358 38.243 31.9302 38.3466C31.917 38.5951 31.9045 38.8437 31.8921 39.0923C32.1795 39.0923 32.4668 39.0923 32.7629 39.0923C32.884 38.7261 32.9113 38.4584 32.9267 38.0757C32.9319 37.9524 32.9371 37.8292 32.9425 37.7022C32.9474 37.5737 32.9523 37.4453 32.9573 37.3129C32.9627 37.183 32.9681 37.0531 32.9736 36.9193C32.9868 36.5985 32.9995 36.2777 33.0117 35.9569C32.9296 35.9569 32.8475 35.9569 32.7629 35.9569ZM38.1046 39.1863C38.0182 39.1956 37.9318 39.2048 37.8428 39.2144C37.2243 39.2959 36.6958 39.4846 36.1219 39.7193C36.163 39.8021 36.204 39.8849 36.2463 39.9702C36.3632 39.9521 36.4801 39.9339 36.6006 39.9153C39.1128 39.5638 41.8325 39.5126 44.3327 39.9702C44.3327 39.8046 44.3327 39.6391 44.3327 39.4685C42.293 39.1241 40.1649 38.9623 38.1046 39.1863ZM30.1504 40.0956C30.1914 41.1302 30.2325 42.1649 30.2748 43.2309C31.7938 43.2309 33.3128 43.2309 34.8778 43.2309C34.8778 42.1963 34.8778 41.1616 34.8778 40.0956C33.3178 40.0956 31.7577 40.0956 30.1504 40.0956ZM38.7344 40.3464C39.3585 40.4364 39.9827 40.5257 40.6069 40.6143C40.8191 40.6445 41.0312 40.675 41.2433 40.7056C41.549 40.7496 41.8547 40.793 42.1605 40.8363C42.2546 40.85 42.3487 40.8637 42.4457 40.8779C42.9549 40.9492 43.4438 40.9879 43.9595 40.9735C43.9595 40.8493 43.9595 40.7252 43.9595 40.5972C43.7914 40.5361 43.6228 40.4763 43.4541 40.417C43.3603 40.3835 43.2665 40.35 43.1698 40.3155C42.3154 40.0707 41.458 40.0726 40.5772 40.0721C40.4548 40.0705 40.3323 40.069 40.2062 40.0674C40.0882 40.0672 39.9703 40.0669 39.8488 40.0667C39.7422 40.0662 39.6357 40.0656 39.526 40.0651C39.2099 40.0979 39.0071 40.1861 38.7344 40.3464ZM28.7119 40.2053C28.6117 40.2257 28.5115 40.2461 28.4082 40.267C28.2853 40.3063 28.2853 40.3063 28.1599 40.3464C28.0088 40.6511 28.0293 40.8228 28.0462 41.1616C28.0516 41.2728 28.0571 41.3841 28.0627 41.4987C28.0691 41.6151 28.0755 41.7315 28.0821 41.8514C28.0876 41.9678 28.093 42.0842 28.0986 42.2041C28.1098 42.8 28.1098 42.8 28.2843 43.3564C28.6948 43.3564 29.1054 43.3564 29.5284 43.3564C29.5284 42.2803 29.5284 41.2042 29.5284 40.0956C29.2425 40.0956 28.9918 40.1464 28.7119 40.2053ZM23.7979 41.1851C23.6786 41.3287 23.6786 41.3287 23.5568 41.4751C23.5158 41.5165 23.4747 41.5579 23.4324 41.6006C23.4233 41.9598 23.421 42.3153 23.4247 42.6744C23.4272 43.0236 23.4298 43.3728 23.4324 43.7326C24.623 43.6912 25.8136 43.6498 27.0402 43.6072C27.0402 42.5311 27.0402 41.4551 27.0402 40.3464C25.2501 40.3108 25.2501 40.3108 23.7979 41.1851ZM44.9548 40.3464C44.6782 40.6253 44.6611 40.713 44.6 41.0881C44.584 41.1835 44.5679 41.2789 44.5514 41.3772C44.5279 41.5265 44.5279 41.5265 44.5038 41.6789C44.4871 41.7795 44.4704 41.8801 44.4533 41.9837C44.4122 42.2321 44.3724 42.4807 44.3327 42.7293C44.2506 42.6879 44.1685 42.6465 44.0839 42.6039C43.345 42.5431 42.7729 42.7192 42.0934 42.9801C42.0934 43.0629 42.0934 43.1457 42.0934 43.2309C43.2019 43.3137 44.3103 43.3965 45.4524 43.4818C45.4627 43.0343 45.4729 42.5868 45.4835 42.1257C45.4903 41.9148 45.4903 41.9148 45.4972 41.6996C45.4985 41.5885 45.4997 41.4774 45.501 41.363C45.5049 41.1925 45.5049 41.1925 45.5089 41.0186C45.4788 40.7004 45.4788 40.7004 45.2006 40.4945C45.1194 40.4456 45.0383 40.3968 44.9548 40.3464ZM46.1988 41.0989C46.1988 41.9266 46.1988 42.7544 46.1988 43.6072C46.5606 43.7107 46.9224 43.8141 47.2952 43.9207C47.4087 43.9535 47.5222 43.9862 47.6391 44.0199C47.7291 44.0454 47.8191 44.0709 47.9119 44.0971C48.0037 44.1234 48.0956 44.1496 48.1902 44.1767C48.4564 44.2483 48.4564 44.2483 48.8114 44.2343C48.9308 43.7236 48.9603 43.2378 48.9669 42.7136C48.9701 42.5607 48.9733 42.4077 48.9766 42.2502C48.9667 41.8629 48.9667 41.8629 48.7919 41.6226C48.4862 41.4261 48.1997 41.3487 47.8472 41.2635C47.7221 41.232 47.5971 41.2005 47.4682 41.168C46.994 41.0741 46.994 41.0741 46.1988 41.0989ZM40.9738 44.1089C41.0123 44.1865 41.0507 44.2641 41.0904 44.344C41.1759 44.5165 41.2615 44.6889 41.347 44.8613C41.4377 44.8632 41.5283 44.865 41.6218 44.8669C43.6418 44.9123 45.5338 45.0476 47.4973 45.5276C47.6436 45.5561 47.7898 45.5845 47.9405 45.6138C48.0226 45.5311 48.1048 45.4483 48.1893 45.363C48.1893 45.2388 48.1893 45.1147 48.1893 44.9868C45.8031 44.2022 43.4733 44.0452 40.9738 44.1089ZM33.385 51.6337C33.385 52.834 33.385 54.0342 33.385 55.2708C33.7544 55.2346 34.1239 55.1984 34.5046 55.161C34.619 55.1502 34.7333 55.1394 34.8511 55.1283C35.5028 55.0616 36.1123 54.9445 36.7439 54.7691C36.7552 54.5969 36.7552 54.5969 36.7668 54.4213C36.7772 54.2722 36.7876 54.1232 36.7984 53.9696C36.8085 53.8212 36.8186 53.6728 36.829 53.5199C36.8683 53.1387 36.8683 53.1387 36.9928 52.8879C37.1159 52.8465 37.2391 52.8051 37.366 52.7625C37.4276 53.6937 37.4276 53.6937 37.4904 54.6437C37.9156 54.5241 38.3406 54.4038 38.7655 54.2831C38.886 54.2493 39.0064 54.2156 39.1305 54.1807C39.2468 54.1476 39.363 54.1145 39.4828 54.0803C39.5897 54.0501 39.6965 54.0199 39.8066 53.9888C40.1446 53.8856 40.1446 53.8856 40.6005 53.6404C40.6005 52.9782 40.6005 52.316 40.6005 51.6337C38.2194 51.6337 35.8383 51.6337 33.385 51.6337Z" fill="white"/>
<path d="M37.366 0.464478C37.485 0.483999 37.6039 0.503521 37.7265 0.523634C43.616 1.52163 49.0981 4.29476 53.4946 8.34896C53.7458 8.57819 54.0019 8.79748 54.262 9.01621C56.619 11.0953 58.4635 13.7955 60.008 16.5176C60.0542 16.5983 60.1004 16.6791 60.148 16.7623C64.1581 23.844 64.9826 32.6543 62.8761 40.4744C61.5175 45.2995 59.1617 49.6295 55.8078 53.3318C55.6239 53.5356 55.4421 53.7413 55.2626 53.949C52.97 56.5892 50.0175 58.6662 46.9453 60.2874C46.8421 60.3419 46.7389 60.3964 46.6325 60.4525C39.2405 64.3009 30.2804 65.0545 22.341 62.5355C16.4226 60.5723 10.8497 57.0259 7.01077 52.01C6.9131 51.8871 6.81544 51.7643 6.71482 51.6377C1.55061 45.0985 -0.68839 36.6113 0.183954 28.3379C1.04173 21.1278 4.27835 14.6874 9.25009 9.49435C9.36202 9.37633 9.47396 9.25832 9.58929 9.13672C10.302 8.39999 11.0576 7.74347 11.8626 7.11147C11.9348 7.05424 12.0069 6.99701 12.0812 6.93804C14.7717 4.81202 17.739 3.16139 20.9443 1.96946C21.0344 1.93522 21.1246 1.90099 21.2174 1.86572C26.2877 -0.0416152 32.0423 -0.444114 37.366 0.464478ZM14.4752 5.85732C14.4015 5.90766 14.3278 5.958 14.2519 6.00986C11.7298 7.73748 9.41024 9.85436 7.50839 12.2535C7.42933 12.3484 7.35027 12.4433 7.26881 12.5411C2.20372 18.6832 -0.0327582 26.9278 0.604312 34.8203C1.23428 41.3952 3.86716 47.713 8.25483 52.6371C8.31273 52.7023 8.37062 52.7676 8.43027 52.8348C9.54197 54.0849 10.6816 55.2277 11.987 56.2741C12.1206 56.3839 12.2541 56.4938 12.3875 56.6038C16.738 60.1619 22.0208 62.329 27.5379 63.1719C27.6257 63.1866 27.7135 63.2013 27.804 63.2164C35.6542 64.5133 44.064 62.0864 50.4632 57.4891C52.2778 56.1429 54.0823 54.6337 55.5294 52.8879C55.6397 52.7619 55.7504 52.6362 55.8613 52.5107C61.1701 46.4626 63.9278 38.288 63.453 30.2329C63.0136 23.7753 60.7493 17.721 56.7734 12.6297C56.679 12.5077 56.5845 12.3856 56.4872 12.2598C55.5305 11.0521 54.4953 9.83339 53.3124 8.84376C53.0966 8.66288 52.8858 8.47602 52.6767 8.28723C47.9702 4.05347 41.8609 1.46921 35.6243 0.715308C35.5266 0.703486 35.4289 0.691664 35.3283 0.679484C28.1075 -0.0878417 20.4704 1.68018 14.4752 5.85732Z" fill="white"/>
<path d="M11.6138 11.3756C11.4646 11.7622 11.3056 12.1359 11.1162 12.5043C10.9879 12.494 10.8596 12.4836 10.7274 12.4729C10.1596 12.5099 9.92691 12.6347 9.49888 13.006C9.26627 13.3832 9.25006 13.6109 9.25006 14.0563C9.45098 14.7905 9.86297 15.2173 10.4864 15.6318C11.0632 15.8336 11.5111 15.8587 12.0803 15.624C12.5196 15.255 12.708 14.8621 12.7723 14.2915C12.7587 13.9843 12.7587 13.9843 12.4846 13.7584C12.1973 14.0482 11.9099 14.3379 11.6138 14.6364C11.2076 14.4101 11.0055 14.2809 10.7429 13.8839C10.9164 13.6877 11.0901 13.4918 11.2639 13.296C11.3606 13.1869 11.4573 13.0777 11.5569 12.9653C11.8578 12.635 12.1679 12.3174 12.4846 12.0026C12.7816 12.2258 13.0729 12.453 13.3633 12.6846C13.4474 12.7469 13.5315 12.8092 13.6181 12.8734C14.2071 13.3526 14.2071 13.3526 14.2613 13.7886C14.1608 14.8616 13.7058 15.7235 12.9278 16.4549C12.2284 17.033 11.6514 17.2223 10.7429 17.1446C9.70457 16.9507 8.95581 16.3655 8.32284 15.525C7.9309 14.8489 7.89935 14.1471 8.006 13.3822C8.24337 12.5402 8.83868 11.9192 9.49888 11.3756C10.1365 11.0336 10.9612 11.0466 11.6138 11.3756Z" fill="white"/>
<path d="M45.7401 4.6737C46.5032 5.09096 46.9153 5.51584 47.1941 6.35896C47.3371 7.52505 47.098 8.39695 46.4477 9.36892C45.9683 9.91575 45.4419 10.3095 44.7113 10.4036C43.8257 10.4536 43.0005 10.2354 42.3277 9.63592C41.6656 8.90345 41.4091 8.31653 41.4325 7.32309C41.5438 6.35856 41.99 5.49219 42.7155 4.85399C43.6948 4.13691 44.6668 4.17853 45.7401 4.6737ZM43.252 6.21787C42.823 6.8022 42.6493 7.24827 42.6674 7.98985C42.7709 8.52884 43.1472 8.84051 43.563 9.17296C44.015 9.29012 44.3988 9.285 44.8304 9.11809C45.4277 8.61335 45.8899 8.01194 45.9807 7.2207C46.0077 6.71938 45.9922 6.43294 45.7401 5.99056C45.3483 5.63832 45.0373 5.50713 44.5194 5.44187C43.9406 5.5148 43.6434 5.79577 43.252 6.21787Z" fill="white"/>
<path d="M18.9538 4.60316C19.167 4.91786 19.167 4.91786 19.3994 5.33507C19.4413 5.40957 19.4832 5.48406 19.5263 5.56082C19.6605 5.80015 19.7931 6.04034 19.9257 6.28059C20.0135 6.43758 20.1014 6.59451 20.1894 6.75138C20.6983 7.661 21.1974 8.576 21.6907 9.49434C20.8665 9.996 20.8665 9.996 20.4467 9.996C20.2801 9.70896 20.1144 9.42151 19.949 9.13377C19.9016 9.05213 19.8541 8.97049 19.8052 8.88637C19.4514 8.26861 19.4514 8.26861 19.4514 7.98936C18.8767 8.32046 18.3019 8.65155 17.7097 8.99268C17.9426 9.57953 18.2168 10.0554 18.5504 10.5849C18.705 10.8739 18.705 10.8739 18.705 11.2501C17.8652 11.7518 17.8652 11.7518 17.5853 11.7518C17.5333 11.6609 17.4814 11.57 17.4278 11.4764C17.2305 11.1313 17.0332 10.7863 16.8359 10.4413C16.7103 10.2217 16.5847 10.0021 16.4591 9.7824C16.3777 9.64014 16.2963 9.49787 16.2125 9.35129C16.1313 9.20878 16.0501 9.06627 15.9665 8.91944C15.8 8.63093 15.6318 8.34509 15.4588 8.06064C15.3781 7.92654 15.2974 7.79244 15.2143 7.65427C15.1409 7.53451 15.0676 7.41476 14.992 7.29138C14.8484 6.98604 14.8484 6.98604 14.9728 6.6098C15.4696 6.23076 15.4696 6.23076 15.8363 6.23894C16.2342 6.42541 16.3412 6.73548 16.5434 7.1193C16.6769 7.37111 16.8154 7.62046 16.9633 7.86395C17.3399 7.86395 17.5858 7.67116 17.9119 7.4877C18.0367 7.41786 18.1614 7.34802 18.29 7.27607C18.4338 7.19459 18.4338 7.19459 18.5806 7.11146C18.5092 6.60404 18.3481 6.2638 18.0752 5.83379C17.7097 5.25561 17.7097 5.25561 17.7097 4.97941C18.5339 4.46207 18.5339 4.46207 18.9538 4.60316Z" fill="white"/>
<path d="M58.9739 18.3361C59.5965 18.9284 59.9039 19.639 59.938 20.4995C59.9092 21.0948 59.6953 21.4343 59.3237 21.8869C59.1371 22.0358 59.1371 22.0358 58.7639 22.0358C58.5997 21.6634 58.4355 21.2909 58.2663 20.9071C58.3895 20.7829 58.5126 20.6588 58.6395 20.5309C58.6116 20.0062 58.5572 19.7166 58.2663 19.2767C58.1021 19.2767 57.9379 19.2767 57.7687 19.2767C57.6605 19.5917 57.6448 19.7814 57.7006 20.1139C57.7756 20.5733 57.7987 21.0139 57.8075 21.4793C57.8122 21.6398 57.8168 21.8004 57.8216 21.9658C57.7601 22.4846 57.6361 22.6764 57.271 23.0392C56.7345 23.3512 56.2827 23.5003 55.6601 23.3845C55.0237 23.1487 54.5722 22.6955 54.2367 22.1103C53.9459 21.4415 53.8177 20.8797 53.9121 20.1546C54.1169 19.63 54.399 19.1649 54.9073 18.9005C55.3758 19.0579 55.4378 19.2176 55.6537 19.6529C55.6537 19.7771 55.6537 19.9013 55.6537 20.0292C55.5947 20.0835 55.5357 20.1378 55.4749 20.1938C55.1865 20.5078 55.1644 20.734 55.1561 21.1579C55.3785 21.6149 55.5037 21.8576 55.9881 22.028C56.083 22.0306 56.178 22.0332 56.2758 22.0358C56.4271 21.9107 56.4271 21.9107 56.4167 21.6635C56.4151 21.1267 56.3991 20.6146 56.3147 20.0841C56.2383 19.465 56.3708 18.9529 56.649 18.3988C57.3077 17.7133 58.2438 17.7659 58.9739 18.3361Z" fill="white"/>
<path d="M61.8741 26.8016C61.9376 27.277 61.9993 27.7525 62.0607 28.2282C62.0785 28.3612 62.0963 28.4943 62.1146 28.6314C62.219 29.4483 62.272 30.2422 62.2473 31.0657C61.9189 31.0657 61.5904 31.0657 61.252 31.0657C61.1048 30.0594 60.9677 29.0761 61.0032 28.0557C60.6337 28.1385 60.2643 28.2213 59.8836 28.3066C59.9657 29.2171 60.0478 30.1276 60.1324 31.0657C59.5782 31.1278 59.5782 31.1278 59.0127 31.1911C58.9708 30.828 58.9294 30.4648 58.8883 30.1016C58.8705 29.948 58.8705 29.948 58.8524 29.7912C58.7964 29.2938 58.7477 28.8082 58.7639 28.3066C58.6998 28.3273 58.6356 28.348 58.5695 28.3693C58.1755 28.4508 57.7967 28.4358 57.3954 28.432C57.4134 28.5953 57.4314 28.7586 57.4499 28.9268C57.4732 29.1433 57.4965 29.3599 57.5198 29.5764C57.5317 29.6837 57.5436 29.7911 57.5558 29.9017C57.6153 30.4583 57.6727 31.0067 57.6443 31.5674C57.5198 31.6928 57.5198 31.6928 57.0766 31.7006C56.9355 31.698 56.7944 31.6954 56.649 31.6928C56.3931 30.2383 56.2736 28.774 56.1514 27.3033C56.7863 27.231 57.4214 27.1596 58.0565 27.0889C58.2721 27.0648 58.4877 27.0405 58.7033 27.0159C59.0149 26.9805 59.3265 26.9458 59.6382 26.9113C59.7331 26.9004 59.828 26.8894 59.9258 26.8781C60.5787 26.8069 61.2173 26.7924 61.8741 26.8016Z" fill="white"/>
<path d="M33.2606 1.34238C33.6711 1.38376 34.0816 1.42515 34.5046 1.46779C34.4636 2.17137 34.4225 2.87495 34.3802 3.59985C35.0371 3.72401 35.6939 3.84817 36.3707 3.97609C36.4528 3.23113 36.5349 2.48616 36.6195 1.71862C37.0301 1.76001 37.4406 1.8014 37.8636 1.84404C37.7925 3.16827 37.6584 4.47299 37.4826 5.78677C37.4591 5.96549 37.4357 6.14423 37.4124 6.32297C37.3561 6.7531 37.299 7.18314 37.2416 7.61312C36.831 7.57173 36.4205 7.53035 35.9975 7.48771C36.0796 6.65997 36.1617 5.83223 36.2463 4.97941C35.5894 4.93802 34.9326 4.89664 34.2558 4.85399C34.1326 5.64035 34.0095 6.4267 33.8826 7.23688C33.472 7.19549 33.0615 7.1541 32.6385 7.11146C32.7071 6.47127 32.7757 5.83108 32.8443 5.19089C32.8676 4.97354 32.8909 4.75619 32.9142 4.53883C32.9478 4.22469 32.9815 3.91055 33.0151 3.59642C33.0254 3.50074 33.0356 3.40506 33.0462 3.30649C33.1164 2.65164 33.1882 1.99698 33.2606 1.34238Z" fill="white"/>
<path d="M52.2948 9.36893C52.7692 9.55683 52.9839 9.84551 53.29 10.2468C52.9743 10.5687 52.6579 10.8899 52.3414 11.211C52.2527 11.3014 52.1641 11.3919 52.0727 11.4851C51.6843 11.8784 51.2983 12.2645 50.8724 12.6165C50.567 12.8691 50.4103 13.002 50.3043 13.3822C50.3245 13.791 50.3984 13.9714 50.6542 14.2915C50.9993 14.5788 50.9993 14.5788 51.4239 14.6364C52.0178 14.3234 52.442 13.8744 52.9066 13.3935C53.4917 12.8014 54.13 12.266 54.7829 11.7518C54.9084 11.8682 55.0326 11.986 55.1561 12.1045C55.2254 12.17 55.2947 12.2355 55.3661 12.303C55.5293 12.5043 55.5293 12.5043 55.5293 12.8805C55.351 13.0696 55.351 13.0696 55.1017 13.2725C54.7062 13.6052 54.3406 13.9499 53.982 14.3228C52.4378 15.9012 52.4378 15.9012 51.455 15.9297C50.7123 15.9179 50.3511 15.685 49.8256 15.1586C49.3906 14.6886 49.0455 14.283 48.9358 13.633C48.973 12.584 49.5646 11.9541 50.2732 11.258C50.3714 11.1602 50.3714 11.1602 50.4716 11.0604C50.9192 10.618 51.3783 10.1922 51.8564 9.78339C52.0086 9.65203 52.1531 9.51173 52.2948 9.36893Z" fill="white"/>
<path d="M51.4239 48.6238C51.7387 49.0222 51.9767 49.4388 52.2146 49.8877C52.292 50.0332 52.3693 50.1787 52.4491 50.3287C52.5298 50.4815 52.6106 50.6343 52.6913 50.7872C52.7735 50.942 52.8557 51.0968 52.9379 51.2516C53.1386 51.6296 53.3389 52.0078 53.5388 52.3862C52.9529 53.0113 52.9529 53.0113 52.6277 53.0295C52.1518 52.8271 51.7457 52.5494 51.3228 52.253C51.0278 52.0486 50.7327 51.8443 50.4287 51.6337C50.8392 52.4201 51.2498 53.2065 51.6727 54.0166C51.4675 54.265 51.2622 54.5133 51.0507 54.7691C50.3769 54.518 49.835 54.1357 49.2468 53.7266C49.0897 53.6195 49.0897 53.6195 48.9295 53.5103C48.3812 53.1313 47.8922 52.7555 47.4429 52.2608C47.6606 52.0022 47.6606 52.0022 47.9405 51.7592C48.4639 51.7879 48.8669 52.1594 49.2779 52.4568C49.3528 52.5101 49.4277 52.5633 49.5049 52.6182C49.6889 52.7492 49.8722 52.8812 50.0554 53.0133C49.9807 52.8743 49.906 52.7352 49.829 52.592C49.7333 52.4085 49.6377 52.2249 49.5423 52.0413C49.4927 51.9498 49.4432 51.8583 49.3921 51.7641C49.3464 51.6751 49.3007 51.5862 49.2536 51.4946C49.2106 51.4132 49.1676 51.3317 49.1233 51.2478C49.0602 51.0067 49.0602 51.0067 49.1599 50.7391C49.3119 50.5005 49.4746 50.3191 49.6822 50.1288C50.2068 50.3152 50.6308 50.5818 51.0896 50.8969C51.2225 50.9878 51.3555 51.0787 51.4924 51.1723C51.593 51.2418 51.6935 51.3113 51.7971 51.3829C51.6782 51.1398 51.5589 50.8968 51.4395 50.6539C51.3731 50.5186 51.3067 50.3833 51.2383 50.2439C51.0542 49.8681 51.0542 49.8681 50.8019 49.5017C50.8174 49.2509 50.8174 49.2509 50.9263 49C51.1829 48.7806 51.1829 48.7806 51.4239 48.6238Z" fill="white"/>
<path d="M28.1599 1.71862C28.2215 2.21526 28.2215 2.21526 28.2843 2.72194C28.1869 2.74765 28.0896 2.77335 27.9893 2.79984C27.8634 2.83362 27.7375 2.86741 27.6078 2.90222C27.4823 2.93569 27.3567 2.96916 27.2273 3.00363C26.9261 3.06806 26.9261 3.06806 26.7914 3.2236C26.8431 3.5389 26.9028 3.8477 26.9698 4.1598C26.999 4.30061 26.999 4.30061 27.0289 4.44427C27.0916 4.7456 27.1553 5.04671 27.2191 5.34782C27.2822 5.6485 27.3452 5.94923 27.4079 6.25002C27.4471 6.43754 27.4865 6.62499 27.5263 6.81238C27.6623 7.45991 27.6623 7.45991 27.6623 7.73854C27.0464 7.80062 27.0464 7.80062 26.4182 7.86395C26.1829 6.95067 25.9693 6.03514 25.7728 5.11266C25.7506 5.01028 25.7283 4.90789 25.7054 4.8024C25.602 4.31021 25.5179 3.85544 25.5473 3.34902C25.4737 3.36712 25.4001 3.38523 25.3243 3.40388C24.8102 3.52563 24.3377 3.63445 23.8056 3.59985C23.7646 3.26875 23.7235 2.93765 23.6812 2.59653C24.2389 2.47082 24.7968 2.34582 25.3548 2.22144C25.5445 2.17905 25.7342 2.13648 25.9238 2.0937C26.1967 2.03219 26.4697 1.97136 26.7428 1.91066C26.8273 1.89146 26.9118 1.87226 26.9989 1.85247C27.4011 1.76374 27.7449 1.71862 28.1599 1.71862Z" fill="white"/>
<path d="M9.7477 43.858C9.97528 44.1646 10.1817 44.4686 10.3853 44.7908C10.4435 44.877 10.5017 44.9633 10.5617 45.0522C10.9676 45.6934 11.1172 46.2329 10.9918 46.9934C10.7849 47.341 10.6395 47.4555 10.2526 47.5607C9.75687 47.6435 9.55149 47.6558 9.12566 47.3696C8.83828 47.9904 8.55091 48.6113 8.25482 49.2509C8.17271 49.2509 8.0906 49.2509 8.006 49.2509C7.70515 48.8802 7.6306 48.6833 7.64834 48.2005C7.75719 47.7459 7.75719 47.7459 7.95158 47.3069C8.1447 46.8329 8.16121 46.4971 8.13041 45.9901C8.03451 46.0535 7.93861 46.1168 7.8398 46.1821C7.71504 46.2636 7.59027 46.3451 7.46173 46.429C7.3376 46.5105 7.21348 46.592 7.08559 46.6759C6.76194 46.868 6.76194 46.868 6.51312 46.868C6.30319 46.578 6.30319 46.578 6.1399 46.2409C6.28378 45.8058 6.35495 45.7729 6.73132 45.5482C6.82746 45.49 6.9236 45.4318 7.02266 45.3718C7.12393 45.312 7.2252 45.2522 7.32954 45.1906C7.52671 45.072 7.72385 44.9535 7.92096 44.8349C8.01784 44.7772 8.11473 44.7195 8.21454 44.6601C8.58097 44.4383 8.94008 44.2057 9.29815 43.9704C9.49888 43.858 9.49888 43.858 9.7477 43.858ZM8.75244 45.4884C8.92583 46.0446 9.20103 46.3505 9.62329 46.7426C9.78751 46.6598 9.95172 46.577 10.1209 46.4917C10.0649 45.8845 9.9219 45.5515 9.49888 45.1122C9.15524 45.1122 9.01459 45.277 8.75244 45.4884Z" fill="white"/>
<path d="M24.0545 56.0233C24.3418 56.0647 24.6292 56.106 24.9253 56.1487C25.2618 57.0137 25.5296 57.893 25.7962 58.7824C26.0014 58.0788 26.2067 57.3752 26.4182 56.6503C26.7056 56.6917 26.9929 56.7331 27.289 56.7758C27.2075 57.6326 27.0119 58.4378 26.7914 59.2684C26.7574 59.3993 26.7234 59.5303 26.6884 59.6652C26.4362 60.6273 26.4362 60.6273 26.2938 60.9145C25.9323 60.8724 25.7297 60.8462 25.4229 60.6636C25.1804 60.271 25.0563 59.8507 24.9253 59.4095C24.8881 59.2902 24.8509 59.1709 24.8126 59.0479C24.7221 58.7515 24.6366 58.4535 24.5521 58.1553C24.3468 58.8589 24.1415 59.5625 23.9301 60.2874C23.6427 60.2046 23.3553 60.1218 23.0592 60.0365C23.2269 59.1186 23.448 58.2233 23.6968 57.3245C23.7313 57.1985 23.7657 57.0726 23.8013 56.9428C23.8853 56.6362 23.9697 56.3297 24.0545 56.0233Z" fill="white"/>
<path d="M7.13516 25.6729C7.46991 25.695 7.79806 25.7504 8.13041 25.7983C8.09749 26.0884 8.06363 26.3784 8.02933 26.6683C8.01057 26.8299 7.9918 26.9914 7.97247 27.1578C7.85156 28.0892 7.67406 29.0128 7.50838 29.937C6.83106 29.8322 6.15375 29.7273 5.47644 29.6224C5.24622 29.5867 5.016 29.5511 4.78577 29.5154C4.45409 29.4641 4.12242 29.4127 3.79076 29.3613C3.68848 29.3455 3.58621 29.3297 3.48083 29.3134C2.95663 29.2321 2.43301 29.1484 1.91008 29.0591C1.95113 28.6452 1.99219 28.2313 2.03449 27.8049C3.09284 27.8772 4.12979 28.0128 5.17575 28.189C5.31736 28.2124 5.45896 28.2357 5.60486 28.2598C5.94917 28.3167 6.29339 28.3741 6.63753 28.432C6.64819 28.3529 6.65884 28.2737 6.66982 28.1922C6.71813 27.8357 6.76724 27.4794 6.81637 27.123C6.83312 26.9984 6.84988 26.8738 6.86715 26.7455C6.88359 26.6271 6.90002 26.5087 6.91696 26.3867C6.93944 26.2221 6.93944 26.2221 6.96237 26.0543C7.01075 25.7983 7.01075 25.7983 7.13516 25.6729Z" fill="white"/>
<path d="M47.3263 53.1466C47.9516 53.5623 48.5055 54.1443 48.687 54.8945C48.7426 55.6012 48.7115 56.042 48.3138 56.6503C47.6546 57.2637 47.1436 57.4638 46.2567 57.4415C45.7017 57.3715 45.3767 57.1098 45.0248 56.6856C44.4798 55.9489 44.3567 55.3069 44.4572 54.3929C44.7503 53.779 45.12 53.4753 45.7012 53.1387C46.2761 52.9455 46.7522 52.9458 47.3263 53.1466ZM45.4524 54.3929C45.3014 54.8326 45.2568 55.1095 45.4475 55.5417C45.7062 55.977 45.8987 56.2396 46.3233 56.5249C46.7936 56.5868 47.0095 56.5613 47.4196 56.3133C47.7355 55.9766 47.8266 55.8591 47.8161 55.3962C47.5967 54.7481 47.2944 54.244 46.6965 53.8912C46.1292 53.7768 45.8358 53.9742 45.4524 54.3929Z" fill="white"/>
<path d="M55.4049 42.353C55.9308 42.516 56.3953 42.7185 56.8774 42.985C57.0097 43.0578 57.142 43.1305 57.2783 43.2055C57.4145 43.2811 57.5506 43.3568 57.6909 43.4348C57.8995 43.5497 57.8995 43.5497 58.1122 43.667C58.4542 43.8555 58.7958 44.0446 59.1371 44.2343C59.0361 44.6027 59.0361 44.6027 58.8883 44.9868C58.5151 45.1122 58.5151 45.1122 58.1521 44.9598C57.9507 44.8529 57.9507 44.8529 57.7453 44.7438C57.6101 44.6728 57.475 44.6018 57.3357 44.5287C57.2322 44.4729 57.1288 44.4172 57.0222 44.3597C56.9863 44.4735 56.9504 44.5873 56.9134 44.7046C56.7734 45.1122 56.7734 45.1122 56.5246 45.6138C56.9762 45.8622 57.4278 46.1105 57.8931 46.3663C57.7687 46.9934 57.7687 46.9934 57.6443 47.2442C56.8472 47.1224 56.1993 46.7091 55.4982 46.3271C55.3597 46.2541 55.2211 46.1811 55.0784 46.1059C54.9469 46.0346 54.8154 45.9632 54.6799 45.8896C54.5594 45.8248 54.4389 45.7599 54.3148 45.693C54.0365 45.4884 54.0365 45.4884 53.9029 45.2439C53.9121 44.9868 53.9121 44.9868 54.4097 44.4851C54.8613 44.7334 55.3129 44.9817 55.7782 45.2376C55.8115 45.1264 55.8449 45.0151 55.8792 44.9005C56.0167 44.5141 56.1798 44.2014 56.4002 43.858C56.3129 43.8244 56.2257 43.7908 56.1358 43.7561C55.7576 43.5986 55.3959 43.4188 55.0317 43.231C55.265 42.4941 55.265 42.4941 55.4049 42.353Z" fill="white"/>
<path d="M8.006 40.0956C8.18772 40.4276 8.25482 40.584 8.25482 40.9735C8.07365 41.0577 7.89216 41.1411 7.71054 41.2243C7.60951 41.2709 7.50848 41.3174 7.40438 41.3654C7.13516 41.4751 7.13516 41.4751 6.88634 41.4751C7.05056 41.889 7.21478 42.3029 7.38397 42.7293C7.96558 42.6323 7.96558 42.6323 8.33257 42.4706C8.62804 42.353 8.62804 42.353 9.00126 42.353C9.08337 42.6428 9.16547 42.9325 9.25007 43.231C8.76388 43.4494 8.27692 43.666 7.78914 43.8808C7.62337 43.9542 7.45781 44.028 7.29249 44.1024C7.05465 44.2093 6.81607 44.3143 6.57727 44.419C6.36228 44.5145 6.36228 44.5145 6.14294 44.612C5.76668 44.7359 5.76668 44.7359 5.48276 44.7322C5.26906 44.6105 5.26906 44.6105 5.02025 43.9834C5.5129 43.7351 6.00555 43.4868 6.51312 43.231C6.38996 42.8585 6.2668 42.486 6.1399 42.1022C5.65375 42.1022 5.42624 42.1675 4.98914 42.353C4.82268 42.4229 4.82268 42.4229 4.65286 42.4941C4.56882 42.5304 4.48479 42.5666 4.39821 42.6039C4.24188 42.2394 4.1494 42.0024 4.1494 41.6006C4.63828 41.3854 5.12754 41.171 5.61716 40.9576C5.78367 40.8848 5.95007 40.8118 6.11637 40.7386C6.35542 40.6333 6.59484 40.529 6.83435 40.4248C6.97833 40.3617 7.12231 40.2987 7.27065 40.2337C7.63278 40.0956 7.63278 40.0956 8.006 40.0956Z" fill="white"/>
<path d="M13.4799 49.1255C14.0208 49.4831 14.4794 49.8916 14.724 50.505C14.7651 51.0029 14.7364 51.3312 14.4751 51.7592C14.1681 51.6147 13.9716 51.5023 13.7287 51.2575C13.7313 51.1359 13.7338 51.0144 13.7365 50.8891C13.7638 50.5117 13.7638 50.5117 13.5732 50.2777C13.3347 50.1145 13.1367 50.0667 12.8579 50.0034C12.9353 50.202 13.0132 50.4006 13.0911 50.5991C13.1344 50.7097 13.1777 50.8202 13.2223 50.9342C13.3476 51.2519 13.3476 51.2519 13.4935 51.5225C13.6737 51.9073 13.6479 52.2192 13.6043 52.6371C13.3809 52.9824 13.2245 53.2047 12.8579 53.3896C12.0977 53.4534 11.721 53.4007 11.1162 52.8879C10.6813 52.4613 10.5312 52.1049 10.4796 51.5088C10.5023 51.1172 10.6644 50.8324 10.8674 50.505C11.4738 50.8342 11.4738 50.8342 11.6138 51.2575C11.5933 51.3377 11.5727 51.4179 11.5516 51.5005C11.4798 51.799 11.5217 51.972 11.6138 52.2608C11.9012 52.3022 12.1886 52.3436 12.4846 52.3862C12.5257 52.3035 12.5668 52.2207 12.609 52.1354C12.4332 51.7547 12.2314 51.392 12.0303 51.0243C11.8497 50.6001 11.8125 50.3342 11.8626 49.8779C12.3212 49.1845 12.6501 49.0175 13.4799 49.1255Z" fill="white"/>
<path d="M54.1609 46.4917C54.243 46.5331 54.3251 46.5745 54.4097 46.6171C54.2542 47.0753 54.2018 47.2167 53.7877 47.4951C53.6298 47.5222 53.6298 47.5222 53.4689 47.5499C53.1215 47.5939 53.1215 47.5939 52.9168 47.9967C52.9168 48.1209 52.9168 48.245 52.9168 48.373C53.3214 48.237 53.6204 48.0652 53.9509 47.8008C54.4447 47.4372 54.7911 47.3598 55.4049 47.3696C56.0807 47.7289 56.0807 47.7289 56.2758 48.1221C56.3582 48.6289 56.3671 49.0716 56.131 49.535C55.7959 50.0027 55.4583 50.4367 54.9073 50.6304C54.5273 50.6214 54.1614 50.5731 53.7877 50.505C53.6632 50.1288 53.6632 50.1288 53.7721 49.7917C54.0365 49.5017 54.0365 49.5017 54.311 49.4615C54.5951 49.4624 54.8734 49.4748 55.1561 49.5017C55.1972 49.1706 55.2382 48.8395 55.2805 48.4984C54.7895 48.567 54.506 48.7063 54.1142 49.0079C53.7298 49.275 53.5445 49.3753 53.0723 49.4547C52.587 49.3606 52.3754 49.2458 52.046 48.8746C51.8805 48.4054 51.91 48.1628 52.046 47.6832C52.5056 46.7418 53.1422 46.3699 54.1609 46.4917Z" fill="white"/>
<path d="M36.6195 57.0266C36.6248 57.2355 36.6246 57.4447 36.6195 57.6537C36.3606 57.9147 35.8499 57.8707 35.4921 57.9123C35.3977 57.9237 35.3033 57.9351 35.2061 57.9469C34.9723 57.975 34.7385 58.0025 34.5046 58.0299C34.5046 58.2782 34.5046 58.5265 34.5046 58.7824C34.5867 58.741 34.6688 58.6996 34.7534 58.657C35.0702 58.6279 35.3847 58.6044 35.702 58.5864C35.8339 58.5783 35.8339 58.5783 35.9683 58.57C36.1854 58.5567 36.4024 58.5441 36.6195 58.5316C36.6195 58.7799 36.6195 59.0282 36.6195 59.2841C36.2511 59.4698 35.8936 59.4538 35.4843 59.48C35.3249 59.4905 35.1655 59.501 35.0013 59.5119C34.8784 59.5195 34.7556 59.5271 34.629 59.5349C34.6701 59.866 34.7111 60.1971 34.7534 60.5382C34.8734 60.5201 34.9933 60.502 35.1169 60.4833C35.2741 60.4601 35.4313 60.4368 35.5932 60.4128C35.7491 60.3895 35.9049 60.3662 36.0655 60.3422C36.4951 60.2874 36.4951 60.2874 36.9928 60.2874C36.998 60.5381 36.9978 60.7891 36.9928 61.0399C36.7238 61.311 36.1609 61.2587 35.7876 61.2985C35.6876 61.3099 35.5876 61.3213 35.4846 61.3331C34.9477 61.3919 34.4235 61.4293 33.8826 61.4161C33.6489 60.0427 33.5139 58.6641 33.385 57.2774C33.8194 57.0585 34.3136 57.0619 34.7923 57.0109C34.8987 56.9985 35.0051 56.986 35.1147 56.9732C35.6432 56.9162 36.1009 56.8735 36.6195 57.0266Z" fill="white"/>
<path d="M21.5215 54.9136C21.6184 54.9487 21.7153 54.9838 21.8151 55.02C21.9383 55.0613 22.0615 55.1027 22.1884 55.1454C22.1473 56.6767 22.1063 58.208 22.064 59.7857C21.3175 59.5349 21.3175 59.5349 21.0687 59.4095C21.0687 59.0784 21.0687 58.7473 21.0687 58.4062C20.8933 58.3181 20.7169 58.2323 20.54 58.1475C20.3928 58.0755 20.3928 58.0755 20.2426 58.002C19.9102 57.8916 19.7695 57.8881 19.4514 58.0299C19.3693 58.1541 19.2872 58.2782 19.2026 58.4062C18.4873 58.2964 18.4873 58.2964 18.2073 58.1553C18.4975 57.4544 19.0882 56.9603 19.6101 56.4301C19.8012 56.2351 19.9894 56.0375 20.1777 55.8398C20.2991 55.7158 20.4207 55.5919 20.5424 55.4682C20.6522 55.3552 20.762 55.2421 20.8752 55.1256C21.1931 54.8945 21.1931 54.8945 21.5215 54.9136ZM21.0687 56.2741C20.9381 56.4171 20.8117 56.5641 20.6877 56.7131C20.5855 56.8353 20.5855 56.8353 20.4812 56.96C20.4287 57.0233 20.3763 57.0867 20.3223 57.152C20.7533 57.3382 20.7533 57.3382 21.1931 57.5282C21.1931 57.1144 21.1931 56.7005 21.1931 56.2741C21.1521 56.2741 21.111 56.2741 21.0687 56.2741Z" fill="white"/>
<path d="M58.7639 37.211C59.1289 37.4363 59.3203 37.5803 59.5104 37.9635C59.5453 38.6572 59.4789 39.1873 59.2615 39.8448C59.3395 39.8614 59.4174 39.8781 59.4977 39.8952C59.5994 39.9174 59.7011 39.9395 59.8058 39.9623C59.9068 39.9842 60.0079 40.006 60.112 40.0285C60.3812 40.0956 60.3812 40.0956 60.63 40.221C60.589 40.5107 60.5479 40.8004 60.5056 41.0989C59.657 41.0084 58.8531 40.7741 58.033 40.5424C57.8897 40.5032 57.7463 40.464 57.5986 40.4236C57.3946 40.3662 57.3946 40.3662 57.1865 40.3077C57.0624 40.273 56.9383 40.2384 56.8104 40.2027C56.5246 40.0956 56.5246 40.0956 56.4002 39.8448C56.4804 39.4882 56.5699 39.1444 56.6723 38.7944C56.7114 38.6499 56.7114 38.6499 56.7513 38.5024C57.0806 37.3636 57.5852 37.0149 58.7639 37.211ZM58.0175 38.0889C57.5892 38.4225 57.5205 38.8293 57.3954 39.3431C57.9497 39.4673 57.9497 39.4673 58.5151 39.5939C58.5562 39.1801 58.5972 38.7662 58.6395 38.3398C58.3316 38.2156 58.3316 38.2156 58.0175 38.0889Z" fill="white"/>
<path d="M6.4276 36.3566C7.03518 36.7697 7.35386 37.2413 7.50838 37.9635C7.52946 38.5633 7.45864 38.8787 7.06519 39.3431C6.96512 39.4259 6.86505 39.5086 6.76194 39.5939C6.63878 39.5525 6.51562 39.5111 6.38872 39.4685C6.24099 39.0844 6.24099 39.0844 6.13991 38.716C6.20406 38.6746 6.26821 38.6332 6.3343 38.5906C6.55447 38.2818 6.52204 38.1824 6.47425 37.8146C6.44603 37.6568 6.4178 37.499 6.38872 37.3364C5.57101 37.1349 4.93983 37.3322 4.1494 37.5873C4.01108 38.1877 4.01108 38.1877 4.16496 38.763C4.44664 39.0091 4.6538 39.0523 5.02025 39.0923C5.02025 39.4233 5.02025 39.7544 5.02025 40.0956C4.12294 40.0496 4.12294 40.0496 3.66733 39.6801C3.19609 39.0793 3.09879 38.6561 3.1143 37.8974C3.18721 37.33 3.48259 36.994 3.88504 36.6153C4.68887 36.1386 5.55206 36.0402 6.4276 36.3566Z" fill="white"/>
<path d="M4.52262 19.1513C5.65052 19.4889 6.69885 19.9965 7.76497 20.4917C7.95763 20.5806 8.15031 20.6696 8.34302 20.7584C8.81152 20.9746 9.2797 21.1915 9.7477 21.4088C9.67125 21.8274 9.58029 22.164 9.37448 22.5375C8.77561 22.4649 8.27536 22.2797 7.73338 22.0246C7.65031 21.9864 7.56724 21.9482 7.48165 21.9088C7.21803 21.7874 6.95499 21.6647 6.69196 21.542C6.42838 21.42 6.16468 21.2982 5.90093 21.1766C5.73742 21.101 5.57403 21.0252 5.41076 20.9492C4.99451 20.7558 4.57672 20.5725 4.1494 20.4054C4.2131 19.9345 4.30086 19.5693 4.52262 19.1513Z" fill="white"/>
<path d="M29.7772 57.152C30.7419 57.1396 31.6819 57.1444 32.6385 57.2774C32.6385 57.5257 32.6385 57.7741 32.6385 58.0299C31.9816 58.0299 31.3248 58.0299 30.648 58.0299C30.648 58.3196 30.648 58.6093 30.648 58.9078C31.2228 58.9078 31.7975 58.9078 32.3897 58.9078C32.3897 59.1561 32.3897 59.4045 32.3897 59.6603C31.8149 59.6603 31.2402 59.6603 30.648 59.6603C30.6506 59.8569 30.6531 60.0535 30.6558 60.256C30.6612 60.6679 30.6401 61.0204 30.5236 61.4161C30.2362 61.4161 29.9488 61.4161 29.6527 61.4161C29.6317 59.9904 29.6976 58.575 29.7772 57.152Z" fill="white"/>
<path d="M15.4704 51.2575C15.9089 51.3354 16.1796 51.5115 16.5337 51.7793C16.6387 51.8581 16.7438 51.9369 16.852 52.0181C17.0149 52.1421 17.0149 52.1421 17.181 52.2687C17.2915 52.3518 17.402 52.435 17.5158 52.5207C17.7883 52.726 18.0603 52.932 18.3318 53.1387C18.2086 53.3457 18.0854 53.5526 17.9585 53.7658C17.5237 53.6846 17.2125 53.4971 16.8389 53.2641C16.5509 53.6558 16.2633 54.0478 15.9758 54.4399C15.8528 54.6072 15.8528 54.6072 15.7272 54.7779C15.6491 54.8846 15.5709 54.9913 15.4903 55.1013C15.418 55.1998 15.3457 55.2983 15.2712 55.3998C15.0928 55.64 15.0928 55.64 14.9728 55.8979C14.6113 55.7345 14.3745 55.5581 14.1019 55.2708C14.1735 55.1721 14.1735 55.1721 14.2464 55.0715C14.463 54.7724 14.679 54.4729 14.895 54.1734C14.9701 54.0699 15.0451 53.9665 15.1225 53.8599C15.1946 53.7596 15.2668 53.6594 15.3411 53.5561C15.4076 53.4642 15.474 53.3722 15.5425 53.2775C15.7085 53.0294 15.8423 52.7823 15.968 52.5117C15.7217 52.3461 15.4754 52.1806 15.2216 52.01C15.2845 51.738 15.346 51.5084 15.4704 51.2575Z" fill="white"/>
<path d="M60.008 33.4486C60.697 33.8345 60.697 33.8345 60.8788 34.2011C60.9479 34.782 60.958 35.2021 60.6456 35.7061C60.2088 36.1205 59.8756 36.1311 59.2941 36.1274C58.8479 36.0559 58.6559 35.8061 58.3907 35.4552C58.2001 35.0709 58.2377 34.7508 58.2663 34.3265C58.4224 33.9725 58.5504 33.7668 58.8572 33.5348C59.2654 33.4091 59.5828 33.4042 60.008 33.4486Z" fill="white"/>
<path d="M41.5958 55.5216C41.7831 55.9759 41.9695 56.4307 42.1556 56.8855C42.209 57.015 42.2624 57.1445 42.3175 57.2779C42.368 57.4016 42.4185 57.5253 42.4705 57.6527C42.5174 57.767 42.5643 57.8812 42.6127 57.999C42.7155 58.2807 42.7155 58.2807 42.7155 58.5316C43.3723 58.2832 44.0292 58.0349 44.706 57.7791C44.7881 58.0274 44.8702 58.2757 44.9548 58.5316C43.1939 59.4531 43.1939 59.4531 42.4666 59.6603C42.0934 59.5349 42.0934 59.5349 41.914 59.1868C41.8231 58.9592 41.8231 58.9592 41.7304 58.727C41.6978 58.6465 41.6652 58.5659 41.6316 58.4829C41.5277 58.2253 41.4256 57.967 41.3237 57.7085C41.2536 57.5338 41.1833 57.3592 41.113 57.1846C40.9407 56.7563 40.7702 56.3272 40.6005 55.8979C40.9814 55.5688 41.0648 55.5216 41.5958 55.5216Z" fill="white"/>
<path d="M5.18352 32.2728C5.51358 32.5439 5.62564 32.7937 5.76667 33.1978C5.79769 33.5608 5.76657 33.8582 5.64227 34.2011C5.33769 34.5605 5.11369 34.7797 4.64701 34.8835C4.18762 34.9107 3.92162 34.8417 3.53513 34.593C3.11143 34.1529 3.11296 33.8226 3.11769 33.2306C3.17112 32.8147 3.35434 32.6021 3.65176 32.3199C4.11748 32.0851 4.68974 32.1383 5.18352 32.2728Z" fill="white"/>
<path d="M38.1124 56.6503C38.457 57.6403 38.722 58.6456 38.9833 59.6603C39.1269 59.6422 39.2706 59.6241 39.4187 59.6054C40.1962 59.5075 40.1962 59.5075 40.9738 59.4095C41.0148 59.6578 41.0559 59.9061 41.0982 60.162C39.6818 60.5344 39.6818 60.5344 38.2368 60.9145C38.0936 60.3894 37.9512 59.8643 37.8092 59.3389C37.7687 59.1908 37.7282 59.0426 37.6865 58.8899C37.4969 58.1865 37.3166 57.5015 37.2416 56.7758C37.548 56.6213 37.774 56.6414 38.1124 56.6503Z" fill="white"/>
<path d="M11.8626 47.2442C11.9447 47.2442 12.0268 47.2442 12.1114 47.2442C12.2843 47.4902 12.4506 47.7411 12.609 47.9967C11.9549 48.6056 11.278 49.1806 10.5797 49.7368C10.5052 49.7966 10.4308 49.8563 10.3541 49.9178C10.0012 50.1966 9.66353 50.4514 9.25007 50.6304C9.08585 50.4235 8.92164 50.2166 8.75244 50.0034C9.60352 49.1177 10.5336 48.329 11.4933 47.5661C11.7243 47.3884 11.7243 47.3884 11.8626 47.2442Z" fill="white"/>
<path d="M18.705 53.3896C19.2885 53.5706 19.2885 53.5706 19.4402 53.8457C19.458 54.3162 19.1975 54.6452 18.9538 55.0278C18.9029 55.1103 18.852 55.1929 18.7995 55.2779C18.6451 55.5274 18.4887 55.7754 18.3318 56.0233C18.2421 56.1666 18.1525 56.31 18.063 56.4534C17.8638 56.7709 17.6632 57.0874 17.4609 57.4028C17.2096 57.3274 16.9607 57.2432 16.7145 57.152C16.6734 57.0692 16.6324 56.9865 16.5901 56.9012C16.7433 56.5773 16.7433 56.5773 16.9774 56.1722C17.0184 56.1008 17.0594 56.0293 17.1016 55.9558C17.1887 55.8045 17.2763 55.6536 17.3643 55.5029C17.4989 55.2723 17.632 55.0409 17.7649 54.8093C18.4172 53.6796 18.4172 53.6796 18.705 53.3896Z" fill="white"/>
<path d="M56.027 40.5972C56.8929 40.8777 57.7351 41.1997 58.5773 41.5457C58.764 41.6207 58.764 41.6207 58.9544 41.6973C59.0724 41.7457 59.1905 41.7942 59.3121 41.844C59.419 41.8876 59.5258 41.9312 59.636 41.9761C59.8836 42.1022 59.8836 42.1022 60.008 42.353C59.8291 42.6823 59.8291 42.6823 59.6348 42.9801C58.8157 42.8662 58.1152 42.5626 57.3566 42.2433C57.2186 42.1872 57.0806 42.1311 56.9384 42.0733C56.8074 42.0185 56.6765 41.9637 56.5416 41.9072C56.4219 41.8575 56.3022 41.8077 56.1789 41.7564C55.9026 41.6006 55.9026 41.6006 55.7782 41.2243C55.8948 40.8873 55.8948 40.8873 56.027 40.5972Z" fill="white"/>
</svg>
