<svg width="40" height="40" viewBox="0 0 40 40" fill="none" xmlns="http://www.w3.org/2000/svg">
<rect width="40" height="40" fill="#DED9F2"/>
<path d="M0 7.87879C0 3.52745 3.52745 0 7.87879 0H32.1212C36.4725 0 40 3.52745 40 7.87879V32.1212C40 36.4725 36.4725 40 32.1212 40H7.87879C3.52745 40 0 36.4725 0 32.1212V7.87879Z" fill="#DED9F2"/>
<path d="M12.3632 8.03873C11.1584 8.46131 10.538 10.0168 11.0954 11.1766C11.3382 11.6712 11.9586 12.2286 12.4261 12.3635C12.6599 12.4354 13.6129 12.4714 15.2224 12.4714C16.5621 12.4714 17.659 12.4984 17.659 12.5343C17.659 12.5703 16.571 13.6942 15.2493 15.0339C12.7858 17.5064 12.3002 18.0999 11.7608 19.2597C9.31516 24.5645 12.1654 30.6336 17.8208 32.1351C18.5761 32.3419 18.8728 32.3689 20.0866 32.3689C21.3004 32.3689 21.5971 32.3419 22.3524 32.1351C28.0078 30.6336 30.858 24.5645 28.4124 19.2597C27.4234 17.1288 25.4543 15.3306 23.2785 14.5753C22.8829 14.4404 22.5412 14.3146 22.5232 14.2966C22.4962 14.2786 23.1346 13.6133 23.9258 12.8041C25.4363 11.2756 25.5712 11.0777 25.5982 10.2955C25.6162 9.63017 25.4004 9.05473 24.9418 8.59618C24.2135 7.8679 24.4024 7.88588 18.2074 7.89487C13.4961 7.89487 12.7048 7.92184 12.3632 8.03873ZM21.1565 18.7202C22.757 19.0979 24.1236 20.4376 24.5462 22.038C24.7081 22.6494 24.7081 23.7283 24.5372 24.3847C23.9618 26.5875 21.678 28.098 19.4392 27.7654C17.65 27.4956 16.0855 26.102 15.636 24.3847C15.4651 23.7283 15.4651 22.6494 15.627 22.038C16.2653 19.6284 18.7379 18.1538 21.1565 18.7202Z" fill="#5C43BC"/>
<path d="M19.2954 21.04C18.8278 21.1838 18.1445 21.8492 17.9557 22.3437C17.7669 22.8472 17.7579 23.6294 17.9467 24.079C18.1445 24.5286 18.612 25.0321 19.0436 25.2658C19.3313 25.4187 19.5651 25.4636 20.0866 25.4636C20.6081 25.4636 20.8419 25.4187 21.1296 25.2658C21.5612 25.0321 22.0287 24.5286 22.2265 24.079C22.4153 23.6294 22.4063 22.8472 22.2175 22.3437C22.0197 21.8222 21.3364 21.1838 20.8239 21.031C20.4013 20.9051 19.709 20.9051 19.2954 21.04Z" fill="#5C43BC"/>
</svg>
