<svg width="56" height="56" viewBox="0 0 56 56" fill="none" xmlns="http://www.w3.org/2000/svg">
<path d="M0 11.0303C0 4.93844 4.93844 0 11.0303 0H44.9697C51.0616 0 56 4.93844 56 11.0303V44.9697C56 51.0616 51.0616 56 44.9697 56H11.0303C4.93844 56 0 51.0616 0 44.9697V11.0303Z" fill="#DED9F2"/>
<path d="M17.3084 11.2542C15.6217 11.8458 14.7531 14.0235 15.5336 15.6473C15.8735 16.3396 16.742 17.1201 17.3966 17.3089C17.7238 17.4096 19.0581 17.4599 21.3113 17.4599C23.1869 17.4599 24.7226 17.4977 24.7226 17.548C24.7226 17.5984 23.1995 19.1719 21.3491 21.0474C17.9001 24.509 17.2203 25.3398 16.4651 26.9636C13.0412 34.3903 17.0315 42.887 24.9491 44.9891C26.0065 45.2786 26.4219 45.3164 28.1212 45.3164C29.8206 45.3164 30.236 45.2786 31.2933 44.9891C39.211 42.887 43.2012 34.3903 39.7774 26.9636C38.3928 23.9803 35.6361 21.4628 32.5898 20.4054C32.036 20.2166 31.5577 20.0404 31.5325 20.0152C31.4947 19.99 32.3884 19.0586 33.4962 17.9257C35.6109 15.7858 35.7997 15.5088 35.8375 14.4137C35.8626 13.4822 35.5605 12.6766 34.9186 12.0347C33.899 11.0151 34.1633 11.0402 25.4904 11.0528C18.8945 11.0528 17.7868 11.0906 17.3084 11.2542ZM29.6192 26.2083C31.8598 26.737 33.7731 28.6126 34.3647 30.8532C34.5913 31.7092 34.5913 33.2197 34.3521 34.1386C33.5465 37.2225 30.3492 39.3373 27.2149 38.8715C24.71 38.4939 22.5197 36.5428 21.8903 34.1386C21.6512 33.2197 21.6512 31.7092 21.8778 30.8532C22.7715 27.4797 26.2331 25.4153 29.6192 26.2083Z" fill="#5C43BC"/>
<path d="M27.0135 29.456C26.359 29.6574 25.4023 30.5889 25.138 31.2812C24.8736 31.9861 24.861 33.0812 25.1254 33.7106C25.4023 34.34 26.0569 35.0449 26.6611 35.3722C27.0639 35.5862 27.3912 35.6491 28.1212 35.6491C28.8513 35.6491 29.1786 35.5862 29.5814 35.3722C30.1856 35.0449 30.8402 34.34 31.1171 33.7106C31.3814 33.0812 31.3689 31.9861 31.1045 31.2812C30.8276 30.5511 29.8709 29.6574 29.1534 29.4434C28.5618 29.2672 27.5926 29.2672 27.0135 29.456Z" fill="#5C43BC"/>
</svg>
