<svg width="15" height="15" viewBox="0 0 15 15" fill="none" xmlns="http://www.w3.org/2000/svg">
<mask id="path-1-inside-1_4722_2997" fill="white">
<path d="M10.4167 9.16667H9.75833L9.525 8.94167C10.3417 7.99167 10.8333 6.75833 10.8333 5.41667C10.8333 2.425 8.40833 0 5.41667 0C2.425 0 0 2.425 0 5.41667C0 8.40833 2.425 10.8333 5.41667 10.8333C6.75833 10.8333 7.99167 10.3417 8.94167 9.525L9.16667 9.75833V10.4167L13.3333 14.575L14.575 13.3333L10.4167 9.16667V9.16667ZM5.41667 9.16667C3.34167 9.16667 1.66667 7.49167 1.66667 5.41667C1.66667 3.34167 3.34167 1.66667 5.41667 1.66667C7.49167 1.66667 9.16667 3.34167 9.16667 5.41667C9.16667 7.49167 7.49167 9.16667 5.41667 9.16667Z"/>
</mask>
<path d="M9.75833 9.16667L6.98179 12.046L8.14391 13.1667H9.75833V9.16667ZM9.525 8.94167L6.49173 6.33412L4.02911 9.19881L6.74845 11.821L9.525 8.94167ZM8.94167 9.525L11.821 6.74845L9.19881 4.02911L6.33412 6.49173L8.94167 9.525ZM9.16667 9.75833H13.1667V8.14391L12.046 6.98179L9.16667 9.75833ZM9.16667 10.4167H5.16667V12.0759L6.34107 13.2479L9.16667 10.4167ZM13.3333 14.575L10.5077 17.4063L13.3362 20.229L16.1618 17.4034L13.3333 14.575ZM14.575 13.3333L17.4034 16.1618L20.229 13.3362L17.4063 10.5077L14.575 13.3333ZM10.4167 5.16667H9.75833V13.1667H10.4167V5.16667ZM12.5349 6.28729L12.3015 6.06229L6.74845 11.821L6.98179 12.046L12.5349 6.28729ZM12.5583 11.5492C13.9739 9.9024 14.8333 7.75244 14.8333 5.41667H6.83333C6.83333 5.76423 6.70939 6.08093 6.49173 6.33412L12.5583 11.5492ZM14.8333 5.41667C14.8333 0.215861 10.6175 -4 5.41667 -4V4C6.19919 4 6.83333 4.63414 6.83333 5.41667H14.8333ZM5.41667 -4C0.215861 -4 -4 0.215861 -4 5.41667H4C4 4.63414 4.63414 4 5.41667 4V-4ZM-4 5.41667C-4 10.6175 0.215861 14.8333 5.41667 14.8333V6.83333C4.63414 6.83333 4 6.19919 4 5.41667H-4ZM5.41667 14.8333C7.75244 14.8333 9.9024 13.9739 11.5492 12.5583L6.33412 6.49173C6.08093 6.70939 5.76423 6.83333 5.41667 6.83333V14.8333ZM6.06229 12.3015L6.28729 12.5349L12.046 6.98179L11.821 6.74845L6.06229 12.3015ZM5.16667 9.75833V10.4167H13.1667V9.75833H5.16667ZM6.34107 13.2479L10.5077 17.4063L16.1589 11.7437L11.9923 7.58541L6.34107 13.2479ZM16.1618 17.4034L17.4034 16.1618L11.7466 10.5049L10.5049 11.7466L16.1618 17.4034ZM17.4063 10.5077L13.2479 6.34107L7.58541 11.9923L11.7437 16.1589L17.4063 10.5077ZM5.41667 5.16667C5.55081 5.16667 5.66667 5.28253 5.66667 5.41667H-2.33333C-2.33333 9.7008 1.13253 13.1667 5.41667 13.1667V5.16667ZM5.66667 5.41667C5.66667 5.55081 5.55081 5.66667 5.41667 5.66667V-2.33333C1.13253 -2.33333 -2.33333 1.13253 -2.33333 5.41667H5.66667ZM5.41667 5.66667C5.28253 5.66667 5.16667 5.55081 5.16667 5.41667H13.1667C13.1667 1.13253 9.7008 -2.33333 5.41667 -2.33333V5.66667ZM5.16667 5.41667C5.16667 5.28253 5.28253 5.16667 5.41667 5.16667V13.1667C9.7008 13.1667 13.1667 9.7008 13.1667 5.41667H5.16667Z" fill="#9CA3AF" mask="url(#path-1-inside-1_4722_2997)"/>
</svg>
