<svg width="21" height="15" viewBox="0 0 21 15" fill="none" xmlns="http://www.w3.org/2000/svg">
<path d="M17.5 9.23077V6.9359C17.5 6.29156 16.9777 5.76923 16.3333 5.76923V5.76923C15.689 5.76923 15.1667 6.29157 15.1667 6.9359V9.23077H12.8205C12.1833 9.23077 11.6667 9.74736 11.6667 10.3846V10.3846C11.6667 11.0219 12.1833 11.5385 12.8205 11.5385H15.1667V13.8333C15.1667 14.4777 15.689 15 16.3333 15V15C16.9777 15 17.5 14.4777 17.5 13.8333V11.5385H19.8462C20.4834 11.5385 21 11.0219 21 10.3846V10.3239C21 9.7202 20.5106 9.23077 19.9068 9.23077V9.23077H17.5ZM0 1.15385C0 0.516594 0.516595 0 1.15385 0H11.6795C12.3167 0 12.8333 0.516594 12.8333 1.15385V1.15385C12.8333 1.7911 12.3167 2.30769 11.6795 2.30769H1.15385C0.516594 2.30769 0 1.7911 0 1.15385V1.15385ZM0 5.76923C0 5.13198 0.516595 4.61538 1.15385 4.61538H11.6795C12.3167 4.61538 12.8333 5.13198 12.8333 5.76923V5.76923C12.8333 6.40648 12.3167 6.92308 11.6795 6.92308H1.15385C0.516594 6.92308 0 6.40648 0 5.76923V5.76923ZM0 10.3846C0 9.74736 0.516595 9.23077 1.15385 9.23077H8.17949C8.81674 9.23077 9.33333 9.74736 9.33333 10.3846V10.3846C9.33333 11.0219 8.81674 11.5385 8.17949 11.5385H1.15385C0.516594 11.5385 0 11.0219 0 10.3846V10.3846Z" fill="white"/>
</svg>
