<svg width="19" height="24" viewBox="0 0 19 24" fill="none" xmlns="http://www.w3.org/2000/svg">
<path d="M1.94967 0.143335C0.771859 0.557697 0.165372 2.0829 0.710332 3.22019C0.947653 3.70508 1.55414 4.25169 2.0112 4.38393C2.23973 4.45446 3.17144 4.48973 4.74479 4.48973C6.05445 4.48973 7.12679 4.51618 7.12679 4.55144C7.12679 4.58671 6.06324 5.68873 4.77116 7.00235C2.36279 9.42681 1.88815 10.0087 1.36077 11.146C-1.03002 16.3475 1.7563 22.2985 7.285 23.7708C8.02334 23.9736 8.31339 24 9.5 24C10.6866 24 10.9767 23.9736 11.715 23.7708C17.2437 22.2985 20.03 16.3475 17.6392 11.146C16.6724 9.05652 14.7474 7.29328 12.6203 6.55272C12.2336 6.42048 11.8996 6.29705 11.882 6.27942C11.8556 6.26179 12.4797 5.60939 13.2532 4.81593C14.7299 3.31717 14.8617 3.12321 14.8881 2.3562C14.9056 1.7038 14.6947 1.13957 14.2464 0.68994C13.5345 -0.024173 13.719 -0.00654054 7.66296 0.00227568C3.05717 0.00227568 2.28368 0.0287243 1.94967 0.143335ZM10.546 10.617C12.1105 10.9873 13.4466 12.3009 13.8597 13.8702C14.0179 14.4697 14.0179 15.5276 13.8509 16.1712C13.2883 18.3312 11.0558 19.8123 8.86714 19.4861C7.118 19.2216 5.5886 17.8551 5.14911 16.1712C4.98211 15.5276 4.98211 14.4697 5.14032 13.8702C5.76439 11.5074 8.18155 10.0616 10.546 10.617Z" fill="#F9A8D4"/>
<path d="M8.72651 12.8916C8.26945 13.0326 7.60143 13.685 7.41685 14.1699C7.23227 14.6636 7.22348 15.4306 7.40806 15.8715C7.60143 16.3123 8.0585 16.806 8.4804 17.0352C8.76167 17.1851 8.9902 17.2292 9.5 17.2292C10.0098 17.2292 10.2383 17.1851 10.5196 17.0352C10.9415 16.806 11.3986 16.3123 11.5919 15.8715C11.7765 15.4306 11.7677 14.6636 11.5832 14.1699C11.3898 13.6586 10.7218 13.0326 10.2208 12.8828C9.80764 12.7593 9.13084 12.7593 8.72651 12.8916Z" fill="#F9A8D4"/>
</svg>
