<svg width="16" height="17" viewBox="0 0 16 17" fill="none" xmlns="http://www.w3.org/2000/svg">
<path fill-rule="evenodd" clip-rule="evenodd" d="M5.71356 2.78657C5.83772 2.78659 5.95849 2.82706 6.0576 2.90184C6.15671 2.97661 6.22877 3.08164 6.26287 3.20102L6.88226 5.36928C7.01563 5.83624 7.26582 6.2615 7.60921 6.60489C7.95261 6.94829 8.37786 7.19848 8.84482 7.33184L11.0131 7.95124C11.1324 7.98542 11.2373 8.05751 11.312 8.15661C11.3867 8.25571 11.4271 8.37644 11.4271 8.50054C11.4271 8.62465 11.3867 8.74537 11.312 8.84448C11.2373 8.94358 11.1324 9.01567 11.0131 9.04985L8.84482 9.66924C8.37786 9.80261 7.95261 10.0528 7.60921 10.3962C7.26582 10.7396 7.01563 11.1648 6.88226 11.6318L6.26287 13.8001C6.22869 13.9194 6.1566 14.0243 6.0575 14.099C5.9584 14.1737 5.83767 14.2141 5.71356 14.2141C5.58946 14.2141 5.46873 14.1737 5.36963 14.099C5.27053 14.0243 5.19844 13.9194 5.16426 13.8001L4.54487 11.6318C4.4115 11.1648 4.16131 10.7396 3.81792 10.3962C3.47452 10.0528 3.04927 9.80261 2.58231 9.66924L0.414042 9.04985C0.294738 9.01567 0.189804 8.94358 0.115104 8.84448C0.0404042 8.74537 0 8.62465 0 8.50054C0 8.37644 0.0404042 8.25571 0.115104 8.15661C0.189804 8.05751 0.294738 7.98542 0.414042 7.95124L2.58231 7.33184C3.04927 7.19848 3.47452 6.94829 3.81792 6.60489C4.16131 6.2615 4.4115 5.83624 4.54487 5.36928L5.16426 3.20102C5.19836 3.08164 5.27042 2.97661 5.36953 2.90184C5.46864 2.82706 5.58941 2.78659 5.71356 2.78657ZM12.5703 0.500977C12.6978 0.500906 12.8216 0.543461 12.9221 0.621874C13.0226 0.700287 13.094 0.810054 13.125 0.933715L13.3215 1.72301C13.4098 2.07448 13.5918 2.39542 13.848 2.65167C14.1043 2.90792 14.4252 3.08987 14.7767 3.17816L15.566 3.37473C15.6899 3.40541 15.7999 3.4767 15.8786 3.57723C15.9573 3.67775 16 3.80172 16 3.92936C16 4.057 15.9573 4.18097 15.8786 4.2815C15.7999 4.38202 15.6899 4.45331 15.566 4.484L14.7767 4.68056C14.4252 4.76885 14.1043 4.95081 13.848 5.20705C13.5918 5.4633 13.4098 5.78425 13.3215 6.13572L13.125 6.92501C13.0943 7.04891 13.023 7.15896 12.9225 7.23763C12.8219 7.31629 12.698 7.35903 12.5703 7.35903C12.4427 7.35903 12.3187 7.31629 12.2182 7.23763C12.1177 7.15896 12.0464 7.04891 12.0157 6.92501L11.8191 6.13572C11.7308 5.78425 11.5489 5.4633 11.2926 5.20705C11.0364 4.95081 10.7154 4.76885 10.364 4.68056L9.57469 4.484C9.45079 4.45331 9.34073 4.38202 9.26207 4.2815C9.18341 4.18097 9.14067 4.057 9.14067 3.92936C9.14067 3.80172 9.18341 3.67775 9.26207 3.57723C9.34073 3.4767 9.45079 3.40541 9.57469 3.37473L10.364 3.17816C10.7154 3.08987 11.0364 2.90792 11.2926 2.65167C11.5489 2.39542 11.7308 2.07448 11.8191 1.72301L12.0157 0.933715C12.0466 0.810054 12.118 0.700287 12.2185 0.621874C12.319 0.543461 12.4429 0.500906 12.5703 0.500977ZM11.4275 10.7861C11.5475 10.7861 11.6645 10.8238 11.7619 10.8939C11.8593 10.9641 11.9321 11.0631 11.97 11.177L12.2702 12.0783C12.3844 12.4188 12.6511 12.687 12.9924 12.8005L13.8937 13.1014C14.0072 13.1395 14.1058 13.2123 14.1757 13.3095C14.2456 13.4067 14.2832 13.5234 14.2832 13.6431C14.2832 13.7628 14.2456 13.8795 14.1757 13.9767C14.1058 14.0739 14.0072 14.1467 13.8937 14.1848L12.9924 14.4857C12.8243 14.5419 12.6715 14.6363 12.5461 14.7617C12.4208 14.887 12.3263 15.0398 12.2702 15.208L11.9692 16.1093C11.9311 16.2228 11.8583 16.3214 11.7611 16.3913C11.6639 16.4612 11.5473 16.4988 11.4275 16.4988C11.3078 16.4988 11.1911 16.4612 11.0939 16.3913C10.9967 16.3214 10.924 16.2228 10.8859 16.1093L10.5849 15.208C10.5288 15.0398 10.4343 14.887 10.309 14.7617C10.1836 14.6363 10.0308 14.5419 9.86267 14.4857L8.96139 14.1848C8.8479 14.1467 8.74924 14.0739 8.67935 13.9767C8.60945 13.8795 8.57185 13.7628 8.57185 13.6431C8.57185 13.5234 8.60945 13.4067 8.67935 13.3095C8.74924 13.2123 8.8479 13.1395 8.96139 13.1014L9.86267 12.8005C10.0308 12.7444 10.1836 12.6499 10.309 12.5246C10.4343 12.3992 10.5288 12.2464 10.5849 12.0783L10.8859 11.177C10.9237 11.0632 10.9964 10.9643 11.0936 10.8942C11.1909 10.824 11.3077 10.7862 11.4275 10.7861Z" fill="#666666"/>
</svg>
