<svg width="25" height="22" viewBox="0 0 25 22" fill="none" xmlns="http://www.w3.org/2000/svg">
<path d="M19.588 0.401817C19.3876 0.335056 19.1741 0.316883 18.9653 0.348794C18.7564 0.380705 18.5582 0.461788 18.3868 0.585361C18.2154 0.708933 18.0759 0.871458 17.9797 1.05954C17.8834 1.24762 17.8333 1.45588 17.8333 1.66715V12.9645C17.005 12.5514 16.0923 12.3355 15.1667 12.3338C12.2253 12.3338 9.83333 14.3672 9.83333 16.8672C9.83333 19.3672 12.2253 21.4005 15.1667 21.4005C18.108 21.4005 20.5 19.3658 20.5 16.8672C20.4942 16.6133 20.4643 16.3606 20.4107 16.1125C20.4658 15.9685 20.4956 15.82 20.5 15.6672V4.01782C20.9216 4.39152 21.2587 4.85089 21.4886 5.36524C21.7185 5.87959 21.8361 6.43708 21.8333 7.00048C21.8333 7.35411 21.9738 7.69324 22.2239 7.94329C22.4739 8.19334 22.813 8.33382 23.1667 8.33382C23.5203 8.33382 23.8594 8.19334 24.1095 7.94329C24.3595 7.69324 24.5 7.35411 24.5 7.00048C24.5 2.09648 19.7893 0.467151 19.588 0.401817ZM13.8333 4.33382H1.83333C1.47971 4.33382 1.14057 4.19334 0.890524 3.94329C0.640476 3.69324 0.5 3.35411 0.5 3.00048C0.5 2.64686 0.640476 2.30772 0.890524 2.05767C1.14057 1.80763 1.47971 1.66715 1.83333 1.66715H13.8333C14.187 1.66715 14.5261 1.80763 14.7761 2.05767C15.0262 2.30772 15.1667 2.64686 15.1667 3.00048C15.1667 3.35411 15.0262 3.69324 14.7761 3.94329C14.5261 4.19334 14.187 4.33382 13.8333 4.33382Z" fill="#F9A8D4"/>
<path d="M13.8333 9.66667H1.83333C1.47971 9.66667 1.14057 9.52619 0.890524 9.27614C0.640476 9.02609 0.5 8.68696 0.5 8.33333C0.5 7.97971 0.640476 7.64057 0.890524 7.39052C1.14057 7.14048 1.47971 7 1.83333 7H13.8333C14.187 7 14.5261 7.14048 14.7761 7.39052C15.0262 7.64057 15.1667 7.97971 15.1667 8.33333C15.1667 8.68696 15.0262 9.02609 14.7761 9.27614C14.5261 9.52619 14.187 9.66667 13.8333 9.66667ZM7.16667 15H1.83333C1.47971 15 1.14057 14.8595 0.890524 14.6095C0.640476 14.3594 0.5 14.0203 0.5 13.6667C0.5 13.313 0.640476 12.9739 0.890524 12.7239C1.14057 12.4738 1.47971 12.3333 1.83333 12.3333H7.16667C7.52029 12.3333 7.85943 12.4738 8.10948 12.7239C8.35952 12.9739 8.5 13.313 8.5 13.6667C8.5 14.0203 8.35952 14.3594 8.10948 14.6095C7.85943 14.8595 7.52029 15 7.16667 15Z" fill="#F9A8D4"/>
</svg>
