<svg width="14" height="18" viewBox="0 0 14 18" fill="none" xmlns="http://www.w3.org/2000/svg">
<path d="M5.6 1.05117L6.18333 0.302344C6.32917 0.1125 6.5625 0 6.80677 0C7.23333 0 7.58333 0.3375 7.58333 0.748828V1.5293C7.58333 1.98984 7.78021 2.43281 8.12656 2.74922L11.2146 5.58984C12.9937 7.22812 14 9.49922 14 11.8723C14 15.2578 11.1562 18 7.64531 18H7C3.13542 18 0 14.9766 0 11.25V11.1164C0 9.40078 0.707292 7.75547 1.9651 6.54258L2.09271 6.41953C2.24583 6.27188 2.45729 6.1875 2.67604 6.1875C3.13177 6.1875 3.5 6.54258 3.5 6.98203V10.125C3.5 11.366 4.54635 12.375 5.83333 12.375C7.12031 12.375 8.16667 11.366 8.16667 10.125V9.98789C8.16667 9.35508 7.90417 8.74688 7.44115 8.30039L6.03385 6.94336C5.15885 6.09961 4.66667 4.95 4.66667 3.75469C4.66667 2.78086 4.99479 1.82812 5.6 1.05117Z" fill="#F84783"/>
</svg>
