<svg width="24" height="24" viewBox="0 0 24 24" fill="none" xmlns="http://www.w3.org/2000/svg">
<path d="M12 0C8.8174 0 5.76515 1.26428 3.51472 3.51472C1.26428 5.76515 0 8.8174 0 12C0 15.1826 1.26428 18.2348 3.51472 20.4853C5.76515 22.7357 8.8174 24 12 24C15.1826 24 18.2348 22.7357 20.4853 20.4853C22.7357 18.2348 24 15.1826 24 12C24 8.8174 22.7357 5.76515 20.4853 3.51472C18.2348 1.26428 15.1826 0 12 0ZM16.87 17.66C16.67 17.66 16.54 17.6 16.36 17.48C14.4758 16.3964 12.3333 15.8434 10.16 15.88C8.86 15.88 7.57 16.04 6.36 16.3C6.17 16.34 5.92 16.41 5.77 16.41C5.57109 16.41 5.38032 16.331 5.23967 16.1903C5.09902 16.0497 5.02 15.8589 5.02 15.66C5.02 15.16 5.31 14.91 5.67 14.84C7.14182 14.4942 8.64811 14.3164 10.16 14.31C12.78 14.31 15.13 14.91 17.14 16.11C17.44 16.29 17.61 16.47 17.61 16.91C17.61 17.34 17.26 17.66 16.87 17.66ZM18.17 14.49C17.92 14.49 17.75 14.39 17.57 14.28C15.2432 12.9797 12.6153 12.3141 9.95 12.35C8.44 12.35 7.12 12.56 6.04 12.85C5.8 12.92 5.67 12.99 5.45 12.99C5.32656 12.9887 5.20458 12.9631 5.09103 12.9146C4.97748 12.8662 4.87459 12.7958 4.78823 12.7076C4.70187 12.6194 4.63374 12.515 4.58771 12.4005C4.54169 12.2859 4.51868 12.1634 4.52 12.04C4.52 11.54 4.76 11.18 5.26 11.04C6.61 10.67 8 10.4 10 10.4C13.15 10.4 16.18 11.18 18.57 12.6C18.97 12.84 19.12 13.13 19.12 13.56C19.12 14.08 18.71 14.5 18.19 14.5L18.17 14.49ZM19.67 10.79C19.42 10.79 19.27 10.73 19.05 10.61C16.87 9.31 13.5 8.59 10.25 8.59C8.62 8.59 6.96 8.75 5.45 9.16C5.28 9.21 5.05 9.3 4.83 9.3C4.19 9.3 3.7 8.79 3.7 8.15C3.7 7.5 4.1 7.13 4.54 7C6.25 6.5 8.16 6.26 10.24 6.26C13.76 6.26 17.47 6.99 20.18 8.58C20.54 8.78 20.8 9.1 20.8 9.67C20.8 10.32 20.27 10.79 19.66 10.79H19.67Z" fill="white"/>
</svg>
